<?xml version="1.0" encoding="UTF-8" standalone="no"?>
<!DOCTYPE svg PUBLIC "-//W3C//DTD SVG 1.1//EN"
 "http://www.w3.org/Graphics/SVG/1.1/DTD/svg11.dtd">
<!-- Generated by graphviz version 5.0.0 (20220707.1540)
 -->
<!-- Title: UmlClassDiagram Pages: 1 -->
<svg width="6007pt" height="1410pt"
 viewBox="0.00 0.00 6006.67 1409.60" xmlns="http://www.w3.org/2000/svg" xmlns:xlink="http://www.w3.org/1999/xlink">
<g id="graph0" class="graph" transform="scale(1 1) rotate(0) translate(4 1405.6)">
<title>UmlClassDiagram</title>
<polygon fill="white" stroke="transparent" points="-4,4 -4,-1405.6 6002.67,-1405.6 6002.67,4 -4,4"/>
<!-- 1 -->
<g id="node1" class="node">
<title>1</title>
<polygon fill="#f2f2f2" stroke="black" points="305.79,-50.9 305.79,-184.5 440.36,-184.5 440.36,-50.9 305.79,-50.9"/>
<text text-anchor="middle" x="373.08" y="-167.9" font-family="Times,serif" font-size="14.00">&lt;&lt;Enum&gt;&gt;</text>
<text text-anchor="middle" x="373.08" y="-151.1" font-family="Times,serif" font-size="14.00">Action</text>
<text text-anchor="middle" x="373.08" y="-134.3" font-family="Times,serif" font-size="14.00">src/LoanManager.sol</text>
<polyline fill="none" stroke="black" points="305.79,-126.1 440.36,-126.1 "/>
<text text-anchor="start" x="313.79" y="-109.5" font-family="Times,serif" font-size="14.00">ASK: 0</text>
<text text-anchor="start" x="313.79" y="-92.7" font-family="Times,serif" font-size="14.00">MATCH: 1</text>
<text text-anchor="start" x="313.79" y="-75.9" font-family="Times,serif" font-size="14.00">LOCK: 2</text>
<text text-anchor="start" x="313.79" y="-59.1" font-family="Times,serif" font-size="14.00">UNLOCK: 3</text>
</g>
<!-- 0 -->
<g id="node6" class="node">
<title>0</title>
<polygon fill="#f2f2f2" stroke="black" points="0,-271.9 0,-799.9 1052.16,-799.9 1052.16,-271.9 0,-271.9"/>
<text text-anchor="middle" x="526.08" y="-783.3" font-family="Times,serif" font-size="14.00">LoanManager</text>
<text text-anchor="middle" x="526.08" y="-766.5" font-family="Times,serif" font-size="14.00">src/LoanManager.sol</text>
<polyline fill="none" stroke="black" points="0,-758.3 1052.16,-758.3 "/>
<text text-anchor="start" x="8" y="-741.7" font-family="Times,serif" font-size="14.00">Private:</text>
<text text-anchor="start" x="8" y="-724.9" font-family="Times,serif" font-size="14.00"> &#160;&#160;MIN_DURATION: uint256</text>
<text text-anchor="start" x="8" y="-708.1" font-family="Times,serif" font-size="14.00"> &#160;&#160;ONE_WORD: uint256</text>
<text text-anchor="start" x="8" y="-691.3" font-family="Times,serif" font-size="14.00">Public:</text>
<text text-anchor="start" x="8" y="-674.5" font-family="Times,serif" font-size="14.00"> &#160;&#160;feeRecipient: address</text>
<text text-anchor="start" x="8" y="-657.7" font-family="Times,serif" font-size="14.00"> &#160;&#160;fee: uint256</text>
<text text-anchor="start" x="8" y="-640.9" font-family="Times,serif" font-size="14.00"> &#160;&#160;seaport: ConsiderationInterface</text>
<text text-anchor="start" x="8" y="-624.1" font-family="Times,serif" font-size="14.00"> &#160;&#160;CI: ConduitControllerInterface</text>
<text text-anchor="start" x="8" y="-607.3" font-family="Times,serif" font-size="14.00"> &#160;&#160;loanCount: uint256</text>
<polyline fill="none" stroke="black" points="0,-599.1 1052.16,-599.1 "/>
<text text-anchor="start" x="8" y="-582.5" font-family="Times,serif" font-size="14.00">Internal:</text>
<text text-anchor="start" x="8" y="-565.7" font-family="Times,serif" font-size="14.00"> &#160;&#160;&#160;_executeLock(consideration: ReceivedItem[], context: bytes)</text>
<text text-anchor="start" x="8" y="-548.9" font-family="Times,serif" font-size="14.00"> &#160;&#160;&#160;_executeUnlock(consideration: ReceivedItem[], context: bytes)</text>
<text text-anchor="start" x="8" y="-532.1" font-family="Times,serif" font-size="14.00">External:</text>
<text text-anchor="start" x="8" y="-515.3" font-family="Times,serif" font-size="14.00"> &#160;&#160;&#160;onERC1155Received(address, address, uint256, uint256, bytes): bytes4</text>
<text text-anchor="start" x="8" y="-498.5" font-family="Times,serif" font-size="14.00"> &#160;&#160;&#160;onERC1155BatchReceived(address, address, uint256[], uint256[], bytes): bytes4</text>
<text text-anchor="start" x="8" y="-481.7" font-family="Times,serif" font-size="14.00"> &#160;&#160;&#160;getSeaportMetadata(): (name: string, schemas: Schema[])</text>
<text text-anchor="start" x="8" y="-464.9" font-family="Times,serif" font-size="14.00"> &#160;&#160;&#160;generateOrder(fulfiller: address, minimumReceived: SpentItem[], maximumSpent: SpentItem[], context: bytes): (offer: SpentItem[], consideration: ReceivedItem[]) &lt;&lt;onlySeaport&gt;&gt;</text>
<text text-anchor="start" x="8" y="-448.1" font-family="Times,serif" font-size="14.00"> &#160;&#160;&#160;ratifyOrder(offer: SpentItem[], consideration: ReceivedItem[], context: bytes, orderHashes: bytes32[], contractNonce: uint256): (ratifyOrderMagicValue: bytes4) &lt;&lt;onlySeaport&gt;&gt;</text>
<text text-anchor="start" x="8" y="-431.3" font-family="Times,serif" font-size="14.00">Public:</text>
<text text-anchor="start" x="8" y="-414.5" font-family="Times,serif" font-size="14.00"> &#160;&#160;&#160;&lt;&lt;event&gt;&gt; LoanOpened(loanId: uint256, loan: Loan)</text>
<text text-anchor="start" x="8" y="-397.7" font-family="Times,serif" font-size="14.00"> &#160;&#160;&#160;&lt;&lt;event&gt;&gt; LoanClosed(loanId: uint256, consideration: ReceivedItem[])</text>
<text text-anchor="start" x="8" y="-380.9" font-family="Times,serif" font-size="14.00"> &#160;&#160;&#160;&lt;&lt;event&gt;&gt; SeaportCompatibleContractDeployed()</text>
<text text-anchor="start" x="8" y="-364.1" font-family="Times,serif" font-size="14.00"> &#160;&#160;&#160;&lt;&lt;modifier&gt;&gt; onlySeaport()</text>
<text text-anchor="start" x="8" y="-347.3" font-family="Times,serif" font-size="14.00"> &#160;&#160;&#160;constructor(consideration: ConsiderationInterface)</text>
<text text-anchor="start" x="8" y="-330.5" font-family="Times,serif" font-size="14.00"> &#160;&#160;&#160;onERC721Received(operator: address, from: address, tokenId: uint256, data: bytes): bytes4</text>
<text text-anchor="start" x="8" y="-313.7" font-family="Times,serif" font-size="14.00"> &#160;&#160;&#160;tokenURI(tokenId: uint256): string</text>
<text text-anchor="start" x="8" y="-296.9" font-family="Times,serif" font-size="14.00"> &#160;&#160;&#160;previewOrder(caller: address, fulfiller: address, minimumReceived: SpentItem[], maximumSpent: SpentItem[], context: bytes): (offer: SpentItem[], consideration: ReceivedItem[])</text>
<text text-anchor="start" x="8" y="-280.1" font-family="Times,serif" font-size="14.00"> &#160;&#160;&#160;supportsInterface(interfaceId: bytes4): bool</text>
</g>
<!-- 1&#45;&gt;0 -->
<g id="edge2" class="edge">
<title>1&#45;&gt;0</title>
<path fill="none" stroke="black" d="M392.23,-184.65C399.65,-206.51 408.71,-232.37 418.59,-260"/>
<polygon fill="black" stroke="black" points="418.67,-260.21 424.46,-264.51 422.72,-271.51 416.93,-267.21 418.67,-260.21"/>
</g>
<!-- 2 -->
<g id="node2" class="node">
<title>2</title>
<polygon fill="#f2f2f2" stroke="black" points="458.79,-916.5 458.79,-1167.7 593.36,-1167.7 593.36,-916.5 458.79,-916.5"/>
<text text-anchor="middle" x="526.08" y="-1151.1" font-family="Times,serif" font-size="14.00">&lt;&lt;Struct&gt;&gt;</text>
<text text-anchor="middle" x="526.08" y="-1134.3" font-family="Times,serif" font-size="14.00">Loan</text>
<text text-anchor="middle" x="526.08" y="-1117.5" font-family="Times,serif" font-size="14.00">src/LoanManager.sol</text>
<polyline fill="none" stroke="black" points="458.79,-1109.3 593.36,-1109.3 "/>
<text text-anchor="start" x="466.79" y="-1092.7" font-family="Times,serif" font-size="14.00">collateral: SpentItem</text>
<text text-anchor="start" x="466.79" y="-1075.9" font-family="Times,serif" font-size="14.00">debt: ReceivedItem</text>
<text text-anchor="start" x="466.79" y="-1059.1" font-family="Times,serif" font-size="14.00">validator: address</text>
<text text-anchor="start" x="466.79" y="-1042.3" font-family="Times,serif" font-size="14.00">trigger: address</text>
<text text-anchor="start" x="466.79" y="-1025.5" font-family="Times,serif" font-size="14.00">pricing: address</text>
<text text-anchor="start" x="466.79" y="-1008.7" font-family="Times,serif" font-size="14.00">resolver: address</text>
<text text-anchor="start" x="466.79" y="-991.9" font-family="Times,serif" font-size="14.00">start: uint256</text>
<text text-anchor="start" x="466.79" y="-975.1" font-family="Times,serif" font-size="14.00">nonce: uint256</text>
<text text-anchor="start" x="466.79" y="-958.3" font-family="Times,serif" font-size="14.00">pricingData: bytes</text>
<text text-anchor="start" x="466.79" y="-941.5" font-family="Times,serif" font-size="14.00">resolverData: bytes</text>
<text text-anchor="start" x="466.79" y="-924.7" font-family="Times,serif" font-size="14.00">triggerData: bytes</text>
</g>
<!-- 2&#45;&gt;0 -->
<g id="edge4" class="edge">
<title>2&#45;&gt;0</title>
<path fill="none" stroke="black" d="M531.99,-916.48C532.45,-884.49 532.72,-848.79 532.8,-812.43"/>
<polygon fill="black" stroke="black" points="532.8,-812.08 528.81,-806.07 532.82,-800.08 536.81,-806.08 532.8,-812.08"/>
</g>
<!-- 3 -->
<g id="node3" class="node">
<title>3</title>
<polygon fill="#f2f2f2" stroke="black" points="458.79,-25.7 458.79,-209.7 593.36,-209.7 593.36,-25.7 458.79,-25.7"/>
<text text-anchor="middle" x="526.08" y="-193.1" font-family="Times,serif" font-size="14.00">&lt;&lt;Struct&gt;&gt;</text>
<text text-anchor="middle" x="526.08" y="-176.3" font-family="Times,serif" font-size="14.00">ValidatorResponse</text>
<text text-anchor="middle" x="526.08" y="-159.5" font-family="Times,serif" font-size="14.00">src/LoanManager.sol</text>
<polyline fill="none" stroke="black" points="458.79,-151.3 593.36,-151.3 "/>
<text text-anchor="start" x="466.79" y="-134.7" font-family="Times,serif" font-size="14.00">trigger: address</text>
<text text-anchor="start" x="466.79" y="-117.9" font-family="Times,serif" font-size="14.00">resolver: address</text>
<text text-anchor="start" x="466.79" y="-101.1" font-family="Times,serif" font-size="14.00">pricing: address</text>
<text text-anchor="start" x="466.79" y="-84.3" font-family="Times,serif" font-size="14.00">recipient: address</text>
<text text-anchor="start" x="466.79" y="-67.5" font-family="Times,serif" font-size="14.00">pricingData: bytes</text>
<text text-anchor="start" x="466.79" y="-50.7" font-family="Times,serif" font-size="14.00">resolverData: bytes</text>
<text text-anchor="start" x="466.79" y="-33.9" font-family="Times,serif" font-size="14.00">triggerData: bytes</text>
</g>
<!-- 3&#45;&gt;0 -->
<g id="edge5" class="edge">
<title>3&#45;&gt;0</title>
<path fill="none" stroke="black" d="M526.08,-209.78C526.08,-225.23 526.08,-241.96 526.08,-259.4"/>
<polygon fill="black" stroke="black" points="526.08,-259.58 530.08,-265.58 526.08,-271.58 522.08,-265.58 526.08,-259.58"/>
</g>
<!-- 4 -->
<g id="node4" class="node">
<title>4</title>
<polygon fill="#f2f2f2" stroke="black" points="820.71,-59.3 820.71,-176.1 1005.44,-176.1 1005.44,-59.3 820.71,-59.3"/>
<text text-anchor="middle" x="913.08" y="-159.5" font-family="Times,serif" font-size="14.00">&lt;&lt;Struct&gt;&gt;</text>
<text text-anchor="middle" x="913.08" y="-142.7" font-family="Times,serif" font-size="14.00">NewLoanRequest</text>
<text text-anchor="middle" x="913.08" y="-125.9" font-family="Times,serif" font-size="14.00">src/LoanManager.sol</text>
<polyline fill="none" stroke="black" points="820.71,-117.7 1005.44,-117.7 "/>
<text text-anchor="start" x="828.71" y="-101.1" font-family="Times,serif" font-size="14.00">loan: Loan</text>
<text text-anchor="start" x="828.71" y="-84.3" font-family="Times,serif" font-size="14.00">signature: Validator.Signature</text>
<text text-anchor="start" x="828.71" y="-67.5" font-family="Times,serif" font-size="14.00">details: bytes</text>
</g>
<!-- 4&#45;&gt;2 -->
<g id="edge1" class="edge">
<title>4&#45;&gt;2</title>
<path fill="none" stroke="black" stroke-dasharray="5,2" d="M958.91,-176.32C975.49,-195.86 994.87,-217.3 1014.08,-235.4 1033.23,-253.44 1049.43,-247.81 1061.08,-271.4 1165.16,-482.22 1188.74,-602.97 1061.08,-800.4 958.87,-958.46 725.43,-1013.75 603.48,-1032.28"/>
<polygon fill="black" stroke="black" points="602.85,-1028.83 593.47,-1033.76 603.87,-1035.76 602.85,-1028.83"/>
</g>
<!-- 4&#45;&gt;0 -->
<g id="edge6" class="edge">
<title>4&#45;&gt;0</title>
<path fill="none" stroke="black" d="M864.31,-176.17C847.91,-195.2 829.38,-216.37 812.08,-235.4 803.83,-244.47 795.41,-253.66 786.89,-262.92"/>
<polygon fill="black" stroke="black" points="786.82,-262.99 785.69,-270.11 778.68,-271.81 779.81,-264.68 786.82,-262.99"/>
</g>
<!-- 5 -->
<g id="node5" class="node">
<title>5</title>
<polygon fill="#f2f2f2" stroke="black" points="610.99,-17.3 610.99,-218.1 803.17,-218.1 803.17,-17.3 610.99,-17.3"/>
<text text-anchor="middle" x="707.08" y="-201.5" font-family="Times,serif" font-size="14.00">&lt;&lt;Enum&gt;&gt;</text>
<text text-anchor="middle" x="707.08" y="-184.7" font-family="Times,serif" font-size="14.00">ContextErrors</text>
<text text-anchor="middle" x="707.08" y="-167.9" font-family="Times,serif" font-size="14.00">src/LoanManager.sol</text>
<polyline fill="none" stroke="black" points="610.99,-159.7 803.17,-159.7 "/>
<text text-anchor="start" x="618.99" y="-143.1" font-family="Times,serif" font-size="14.00">LENGTH_MISMATCH: 0</text>
<text text-anchor="start" x="618.99" y="-126.3" font-family="Times,serif" font-size="14.00">BORROWER_MISMATCH: 1</text>
<text text-anchor="start" x="618.99" y="-109.5" font-family="Times,serif" font-size="14.00">COLLATERAL: 2</text>
<text text-anchor="start" x="618.99" y="-92.7" font-family="Times,serif" font-size="14.00">INVALID_PAYMENT: 3</text>
<text text-anchor="start" x="618.99" y="-75.9" font-family="Times,serif" font-size="14.00">ZERO_ADDRESS: 4</text>
<text text-anchor="start" x="618.99" y="-59.1" font-family="Times,serif" font-size="14.00">INVALID_LOAN: 5</text>
<text text-anchor="start" x="618.99" y="-42.3" font-family="Times,serif" font-size="14.00">INVALID_CONDUIT: 6</text>
<text text-anchor="start" x="618.99" y="-25.5" font-family="Times,serif" font-size="14.00">INVALID_RESOLVER: 7</text>
</g>
<!-- 5&#45;&gt;0 -->
<g id="edge3" class="edge">
<title>5&#45;&gt;0</title>
<path fill="none" stroke="black" d="M663.84,-218.13C658.05,-231.44 651.9,-245.59 645.53,-260.22"/>
<polygon fill="black" stroke="black" points="645.41,-260.5 646.69,-267.59 640.63,-271.5 639.35,-264.4 645.41,-260.5"/>
</g>
<!-- 0&#45;&gt;1 -->
<g id="edge8" class="edge">
<title>0&#45;&gt;1</title>
<path fill="none" stroke="black" stroke-dasharray="5,2" d="M435.79,-271.51C425.29,-243.57 415.15,-217.06 406.18,-194.21"/>
<polygon fill="black" stroke="black" points="409.33,-192.67 402.41,-184.65 402.82,-195.23 409.33,-192.67"/>
</g>
<!-- 0&#45;&gt;2 -->
<g id="edge7" class="edge">
<title>0&#45;&gt;2</title>
<path fill="none" stroke="black" stroke-dasharray="5,2" d="M519.33,-800.08C519.37,-836.86 519.6,-873.33 520.03,-906.35"/>
<polygon fill="black" stroke="black" points="516.53,-906.53 520.16,-916.48 523.53,-906.43 516.53,-906.53"/>
</g>
<!-- 6 -->
<g id="node7" class="node">
<title>6</title>
<polygon fill="#f2f2f2" stroke="black" points="1023.14,-50.9 1023.14,-184.5 1571.02,-184.5 1571.02,-50.9 1023.14,-50.9"/>
<text text-anchor="middle" x="1297.08" y="-167.9" font-family="Times,serif" font-size="14.00">&lt;&lt;Interface&gt;&gt;</text>
<text text-anchor="middle" x="1297.08" y="-151.1" font-family="Times,serif" font-size="14.00">TokenReceiverInterface</text>
<text text-anchor="middle" x="1297.08" y="-134.3" font-family="Times,serif" font-size="14.00">src/interfaces/TokenReceiverInterface.sol</text>
<polyline fill="none" stroke="black" points="1023.14,-126.1 1571.02,-126.1 "/>
<text text-anchor="start" x="1031.14" y="-109.5" font-family="Times,serif" font-size="14.00">External:</text>
<text text-anchor="start" x="1031.14" y="-92.7" font-family="Times,serif" font-size="14.00"> &#160;&#160;&#160;&#160;onERC721Received(operator: address, from: address, tokenId: uint256, data: bytes): bytes4</text>
<text text-anchor="start" x="1031.14" y="-75.9" font-family="Times,serif" font-size="14.00"> &#160;&#160;&#160;&#160;onERC1155Received(address, address, uint256, uint256, bytes): bytes4</text>
<text text-anchor="start" x="1031.14" y="-59.1" font-family="Times,serif" font-size="14.00"> &#160;&#160;&#160;&#160;onERC1155BatchReceived(address, address, uint256[], uint256[], bytes): bytes4</text>
</g>
<!-- 7 -->
<g id="node8" class="node">
<title>7</title>
<polygon fill="#f2f2f2" stroke="black" points="1790.62,-485.9 1790.62,-585.9 2151.54,-585.9 2151.54,-485.9 1790.62,-485.9"/>
<text text-anchor="middle" x="1971.08" y="-569.3" font-family="Times,serif" font-size="14.00">&lt;&lt;Abstract&gt;&gt;</text>
<text text-anchor="middle" x="1971.08" y="-552.5" font-family="Times,serif" font-size="14.00">Pricing</text>
<text text-anchor="middle" x="1971.08" y="-535.7" font-family="Times,serif" font-size="14.00">src/pricing/Pricing.sol</text>
<polyline fill="none" stroke="black" points="1790.62,-527.5 2151.54,-527.5 "/>
<text text-anchor="start" x="1798.62" y="-510.9" font-family="Times,serif" font-size="14.00">Public:</text>
<text text-anchor="start" x="1798.62" y="-494.1" font-family="Times,serif" font-size="14.00"> &#160;&#160;&#160;&lt;&lt;abstract&gt;&gt; getOwed(loan: LoanManager.Loan): uint256</text>
</g>
<!-- 9 -->
<g id="node9" class="node">
<title>9</title>
<polygon fill="#f2f2f2" stroke="black" points="1633.06,-485.9 1633.06,-585.9 1773.1,-585.9 1773.1,-485.9 1633.06,-485.9"/>
<text text-anchor="middle" x="1703.08" y="-569.3" font-family="Times,serif" font-size="14.00">&lt;&lt;Struct&gt;&gt;</text>
<text text-anchor="middle" x="1703.08" y="-552.5" font-family="Times,serif" font-size="14.00">Details</text>
<text text-anchor="middle" x="1703.08" y="-535.7" font-family="Times,serif" font-size="14.00">src/pricing/Pricing.sol</text>
<polyline fill="none" stroke="black" points="1633.06,-527.5 1773.1,-527.5 "/>
<text text-anchor="start" x="1641.06" y="-510.9" font-family="Times,serif" font-size="14.00">rate: uint256</text>
<text text-anchor="start" x="1641.06" y="-494.1" font-family="Times,serif" font-size="14.00">loanDuration: uint256</text>
</g>
<!-- 8 -->
<g id="node10" class="node">
<title>8</title>
<polygon fill="#f2f2f2" stroke="black" points="1589.38,-59.3 1589.38,-176.1 2084.77,-176.1 2084.77,-59.3 1589.38,-59.3"/>
<text text-anchor="middle" x="1837.08" y="-159.5" font-family="Times,serif" font-size="14.00">FixedTermPricing</text>
<text text-anchor="middle" x="1837.08" y="-142.7" font-family="Times,serif" font-size="14.00">src/pricing/Pricing.sol</text>
<polyline fill="none" stroke="black" points="1589.38,-134.5 2084.77,-134.5 "/>
<text text-anchor="start" x="1597.38" y="-117.9" font-family="Times,serif" font-size="14.00">Internal:</text>
<text text-anchor="start" x="1597.38" y="-101.1" font-family="Times,serif" font-size="14.00"> &#160;&#160;&#160;_getOwed(loan: LoanManager.Loan, details: Details, timestamp: uint256): uint256</text>
<text text-anchor="start" x="1597.38" y="-84.3" font-family="Times,serif" font-size="14.00">Public:</text>
<text text-anchor="start" x="1597.38" y="-67.5" font-family="Times,serif" font-size="14.00"> &#160;&#160;&#160;getOwed(loan: LoanManager.Loan): uint256</text>
</g>
<!-- 9&#45;&gt;8 -->
<g id="edge9" class="edge">
<title>9&#45;&gt;8</title>
<path fill="none" stroke="black" d="M1723.65,-485.6C1741.18,-432.47 1766.63,-345.56 1791.08,-271.4 1800.11,-244.02 1810.71,-214.13 1819.6,-188.11"/>
<polygon fill="black" stroke="black" points="1819.7,-187.81 1817.84,-180.85 1823.56,-176.45 1825.42,-183.42 1819.7,-187.81"/>
</g>
<!-- 8&#45;&gt;7 -->
<g id="edge10" class="edge">
<title>8&#45;&gt;7</title>
<path fill="none" stroke="black" d="M1855.57,-176.13C1879.09,-249.18 1919.79,-375.6 1946.07,-457.21"/>
<polygon fill="none" stroke="black" points="1936.09,-460.49 1955.28,-485.83 1956.08,-454.06 1936.09,-460.49"/>
</g>
<!-- 8&#45;&gt;9 -->
<g id="edge11" class="edge">
<title>8&#45;&gt;9</title>
<path fill="none" stroke="black" stroke-dasharray="5,2" d="M1807.32,-176.45C1795.99,-204.91 1783.49,-239.82 1773.08,-271.4 1750.11,-341.07 1726.26,-421.99 1712.8,-475.59"/>
<polygon fill="black" stroke="black" points="1709.33,-475.05 1710.33,-485.6 1716.13,-476.73 1709.33,-475.05"/>
</g>
<!-- 11 -->
<g id="node11" class="node">
<title>11</title>
<polygon fill="#f2f2f2" stroke="black" points="2542.3,-59.3 2542.3,-176.1 2781.86,-176.1 2781.86,-59.3 2542.3,-59.3"/>
<text text-anchor="middle" x="2662.08" y="-159.5" font-family="Times,serif" font-size="14.00">&lt;&lt;Struct&gt;&gt;</text>
<text text-anchor="middle" x="2662.08" y="-142.7" font-family="Times,serif" font-size="14.00">Details</text>
<text text-anchor="middle" x="2662.08" y="-125.9" font-family="Times,serif" font-size="14.00">src/resolvers/DutchAuctionResolver.sol</text>
<polyline fill="none" stroke="black" points="2542.3,-117.7 2781.86,-117.7 "/>
<text text-anchor="start" x="2550.3" y="-101.1" font-family="Times,serif" font-size="14.00">startingPrice: uint256</text>
<text text-anchor="start" x="2550.3" y="-84.3" font-family="Times,serif" font-size="14.00">endingPrice: uint256</text>
<text text-anchor="start" x="2550.3" y="-67.5" font-family="Times,serif" font-size="14.00">window: uint256</text>
</g>
<!-- 10 -->
<g id="node12" class="node">
<title>10</title>
<polygon fill="#f2f2f2" stroke="black" points="2169.65,-494.3 2169.65,-577.5 3154.5,-577.5 3154.5,-494.3 2169.65,-494.3"/>
<text text-anchor="middle" x="2662.08" y="-560.9" font-family="Times,serif" font-size="14.00">DutchAuctionResolver</text>
<text text-anchor="middle" x="2662.08" y="-544.1" font-family="Times,serif" font-size="14.00">src/resolvers/DutchAuctionResolver.sol</text>
<polyline fill="none" stroke="black" points="2169.65,-535.9 3154.5,-535.9 "/>
<text text-anchor="start" x="2177.65" y="-519.3" font-family="Times,serif" font-size="14.00">External:</text>
<text text-anchor="start" x="2177.65" y="-502.5" font-family="Times,serif" font-size="14.00"> &#160;&#160;&#160;getUnlockConsideration(loan: LoanManager.Loan, maximumSpent: SpentItem[], owing: uint256, lmOwner: address): (consideration: ReceivedItem[], restricted: address)</text>
</g>
<!-- 11&#45;&gt;10 -->
<g id="edge12" class="edge">
<title>11&#45;&gt;10</title>
<path fill="none" stroke="black" d="M2657.25,-176.13C2654.64,-256.93 2654.69,-403.04 2657.38,-481.56"/>
<polygon fill="black" stroke="black" points="2657.4,-482.03 2661.63,-487.88 2657.86,-494.03 2653.63,-488.18 2657.4,-482.03"/>
</g>
<!-- 10&#45;&gt;11 -->
<g id="edge13" class="edge">
<title>10&#45;&gt;11</title>
<path fill="none" stroke="black" stroke-dasharray="5,2" d="M2666.3,-494.03C2669.33,-422.35 2669.64,-273.35 2667.21,-186.19"/>
<polygon fill="black" stroke="black" points="2670.71,-186.02 2666.91,-176.13 2663.71,-186.23 2670.71,-186.02"/>
</g>
<!-- 13 -->
<g id="node13" class="node">
<title>13</title>
<polygon fill="#f2f2f2" stroke="black" points="3541.01,-67.7 3541.01,-167.7 3789.14,-167.7 3789.14,-67.7 3541.01,-67.7"/>
<text text-anchor="middle" x="3665.08" y="-151.1" font-family="Times,serif" font-size="14.00">&lt;&lt;Struct&gt;&gt;</text>
<text text-anchor="middle" x="3665.08" y="-134.3" font-family="Times,serif" font-size="14.00">Details</text>
<text text-anchor="middle" x="3665.08" y="-117.5" font-family="Times,serif" font-size="14.00">src/resolvers/EnglishAuctionResolver.sol</text>
<polyline fill="none" stroke="black" points="3541.01,-109.3 3789.14,-109.3 "/>
<text text-anchor="start" x="3549.01" y="-92.7" font-family="Times,serif" font-size="14.00">reservePrice: uint256</text>
<text text-anchor="start" x="3549.01" y="-75.9" font-family="Times,serif" font-size="14.00">window: uint256</text>
</g>
<!-- 12 -->
<g id="node14" class="node">
<title>12</title>
<polygon fill="#f2f2f2" stroke="black" points="3172.65,-423.1 3172.65,-648.7 4157.5,-648.7 4157.5,-423.1 3172.65,-423.1"/>
<text text-anchor="middle" x="3665.08" y="-632.1" font-family="Times,serif" font-size="14.00">EnglishAuctionResolver</text>
<text text-anchor="middle" x="3665.08" y="-615.3" font-family="Times,serif" font-size="14.00">src/resolvers/EnglishAuctionResolver.sol</text>
<polyline fill="none" stroke="black" points="3172.65,-607.1 4157.5,-607.1 "/>
<text text-anchor="start" x="3180.65" y="-590.5" font-family="Times,serif" font-size="14.00">Public:</text>
<text text-anchor="start" x="3180.65" y="-573.7" font-family="Times,serif" font-size="14.00"> &#160;&#160;LM: LoanManager</text>
<text text-anchor="start" x="3180.65" y="-556.9" font-family="Times,serif" font-size="14.00"> &#160;&#160;consideration: ConsiderationInterface</text>
<text text-anchor="start" x="3180.65" y="-540.1" font-family="Times,serif" font-size="14.00"> &#160;&#160;ENGLISH_AUCTION_ZONE: address</text>
<polyline fill="none" stroke="black" points="3172.65,-531.9 4157.5,-531.9 "/>
<text text-anchor="start" x="3180.65" y="-515.3" font-family="Times,serif" font-size="14.00">External:</text>
<text text-anchor="start" x="3180.65" y="-498.5" font-family="Times,serif" font-size="14.00"> &#160;&#160;&#160;resolve(loan: LoanManager.Loan): bytes4</text>
<text text-anchor="start" x="3180.65" y="-481.7" font-family="Times,serif" font-size="14.00"> &#160;&#160;&#160;getUnlockConsideration(loan: LoanManager.Loan, maximumSpent: SpentItem[], owing: uint256, lmOwner: address): (consideration: ReceivedItem[], restricted: address)</text>
<text text-anchor="start" x="3180.65" y="-464.9" font-family="Times,serif" font-size="14.00"> &#160;&#160;&#160;liquidate(loan: LoanManager.Loan)</text>
<text text-anchor="start" x="3180.65" y="-448.1" font-family="Times,serif" font-size="14.00">Public:</text>
<text text-anchor="start" x="3180.65" y="-431.3" font-family="Times,serif" font-size="14.00"> &#160;&#160;&#160;constructor(LM_: LoanManager, consideration_: ConsiderationInterface)</text>
</g>
<!-- 13&#45;&gt;12 -->
<g id="edge14" class="edge">
<title>13&#45;&gt;12</title>
<path fill="none" stroke="black" d="M3660.52,-168.08C3658.35,-227.53 3657.79,-329.55 3658.84,-410.93"/>
<polygon fill="black" stroke="black" points="3658.85,-411.03 3662.93,-416.98 3659.02,-423.03 3654.93,-417.09 3658.85,-411.03"/>
</g>
<!-- 12&#45;&gt;13 -->
<g id="edge15" class="edge">
<title>12&#45;&gt;13</title>
<path fill="none" stroke="black" stroke-dasharray="5,2" d="M3671.14,-423.03C3672.35,-344.29 3671.96,-241.99 3669.98,-178.34"/>
<polygon fill="black" stroke="black" points="3673.47,-177.95 3669.63,-168.08 3666.47,-178.19 3673.47,-177.95"/>
</g>
<!-- 14 -->
<g id="node15" class="node">
<title>14</title>
<polygon fill="#f2f2f2" stroke="black" points="3807.35,-59.3 3807.35,-176.1 4870.81,-176.1 4870.81,-59.3 3807.35,-59.3"/>
<text text-anchor="middle" x="4339.08" y="-159.5" font-family="Times,serif" font-size="14.00">&lt;&lt;Abstract&gt;&gt;</text>
<text text-anchor="middle" x="4339.08" y="-142.7" font-family="Times,serif" font-size="14.00">Resolver</text>
<text text-anchor="middle" x="4339.08" y="-125.9" font-family="Times,serif" font-size="14.00">src/resolvers/Resolver.sol</text>
<polyline fill="none" stroke="black" points="3807.35,-117.7 4870.81,-117.7 "/>
<text text-anchor="start" x="3815.35" y="-101.1" font-family="Times,serif" font-size="14.00">External:</text>
<text text-anchor="start" x="3815.35" y="-84.3" font-family="Times,serif" font-size="14.00"> &#160;&#160;&#160;&lt;&lt;abstract&gt;&gt; getUnlockConsideration(loan: LoanManager.Loan, maximumSpent: SpentItem[], owing: uint256, lmOwner: address): (consideration: ReceivedItem[], restricted: address)</text>
<text text-anchor="start" x="3815.35" y="-67.5" font-family="Times,serif" font-size="14.00"> &#160;&#160;&#160;resolve(loan: LoanManager.Loan): bytes4</text>
</g>
<!-- 14&#45;&gt;14 -->
<g id="edge16" class="edge">
<title>14&#45;&gt;14</title>
<path fill="none" stroke="black" stroke-dasharray="5,2" d="M4500.87,-59.23C4681.59,-19.63 4888.81,-39.12 4888.81,-117.7 4888.81,-194.86 4689.01,-215.05 4510.69,-178.26"/>
<polygon fill="black" stroke="black" points="4511.38,-174.83 4500.87,-176.17 4509.92,-181.68 4511.38,-174.83"/>
</g>
<!-- 15 -->
<g id="node16" class="node">
<title>15</title>
<polygon fill="#f2f2f2" stroke="black" points="5006.62,-485.9 5006.62,-585.9 5381.54,-585.9 5381.54,-485.9 5006.62,-485.9"/>
<text text-anchor="middle" x="5194.08" y="-569.3" font-family="Times,serif" font-size="14.00">&lt;&lt;Abstract&gt;&gt;</text>
<text text-anchor="middle" x="5194.08" y="-552.5" font-family="Times,serif" font-size="14.00">Trigger</text>
<text text-anchor="middle" x="5194.08" y="-535.7" font-family="Times,serif" font-size="14.00">src/triggers/Trigger.sol</text>
<polyline fill="none" stroke="black" points="5006.62,-527.5 5381.54,-527.5 "/>
<text text-anchor="start" x="5014.62" y="-510.9" font-family="Times,serif" font-size="14.00">External:</text>
<text text-anchor="start" x="5014.62" y="-494.1" font-family="Times,serif" font-size="14.00"> &#160;&#160;&#160;&lt;&lt;abstract&gt;&gt; isLoanHealthy(loan: LoanManager.Loan): bool</text>
</g>
<!-- 17 -->
<g id="node17" class="node">
<title>17</title>
<polygon fill="#f2f2f2" stroke="black" points="4843.74,-494.3 4843.74,-577.5 4988.42,-577.5 4988.42,-494.3 4843.74,-494.3"/>
<text text-anchor="middle" x="4916.08" y="-560.9" font-family="Times,serif" font-size="14.00">&lt;&lt;Struct&gt;&gt;</text>
<text text-anchor="middle" x="4916.08" y="-544.1" font-family="Times,serif" font-size="14.00">Details</text>
<text text-anchor="middle" x="4916.08" y="-527.3" font-family="Times,serif" font-size="14.00">src/triggers/Trigger.sol</text>
<polyline fill="none" stroke="black" points="4843.74,-519.1 4988.42,-519.1 "/>
<text text-anchor="start" x="4851.74" y="-502.5" font-family="Times,serif" font-size="14.00">loanDuration: uint256</text>
</g>
<!-- 16 -->
<g id="node18" class="node">
<title>16</title>
<polygon fill="#f2f2f2" stroke="black" points="4906.93,-76.1 4906.93,-159.3 5203.23,-159.3 5203.23,-76.1 4906.93,-76.1"/>
<text text-anchor="middle" x="5055.08" y="-142.7" font-family="Times,serif" font-size="14.00">FixedTermTrigger</text>
<text text-anchor="middle" x="5055.08" y="-125.9" font-family="Times,serif" font-size="14.00">src/triggers/Trigger.sol</text>
<polyline fill="none" stroke="black" points="4906.93,-117.7 5203.23,-117.7 "/>
<text text-anchor="start" x="4914.93" y="-101.1" font-family="Times,serif" font-size="14.00">External:</text>
<text text-anchor="start" x="4914.93" y="-84.3" font-family="Times,serif" font-size="14.00"> &#160;&#160;&#160;isLoanHealthy(loan: LoanManager.Loan): bool</text>
</g>
<!-- 17&#45;&gt;16 -->
<g id="edge17" class="edge">
<title>17&#45;&gt;16</title>
<path fill="none" stroke="black" d="M4934.27,-494.05C4952.4,-442.05 4980.34,-349.6 5007.08,-271.4 5018.59,-237.75 5032.53,-200.33 5042.69,-170.96"/>
<polygon fill="black" stroke="black" points="5042.78,-170.67 5040.93,-163.7 5046.65,-159.31 5048.5,-166.28 5042.78,-170.67"/>
</g>
<!-- 16&#45;&gt;15 -->
<g id="edge18" class="edge">
<title>16&#45;&gt;15</title>
<path fill="none" stroke="black" d="M5068.66,-159.36C5091.66,-228.24 5138.65,-368.94 5168.13,-457.21"/>
<polygon fill="none" stroke="black" points="5158.21,-460.64 5177.67,-485.77 5178.13,-453.98 5158.21,-460.64"/>
</g>
<!-- 16&#45;&gt;17 -->
<g id="edge19" class="edge">
<title>16&#45;&gt;17</title>
<path fill="none" stroke="black" stroke-dasharray="5,2" d="M5031.79,-159.31C5018.42,-189.95 5002.17,-233.11 4989.08,-271.4 4963.96,-344.87 4937.78,-430.91 4924.24,-484.17"/>
<polygon fill="black" stroke="black" points="4920.8,-483.5 4921.78,-494.05 4927.59,-485.19 4920.8,-483.5"/>
</g>
<!-- 19 -->
<g id="node19" class="node">
<title>19</title>
<polygon fill="#f2f2f2" stroke="black" points="5594.46,-0.5 5594.46,-234.9 5803.69,-234.9 5803.69,-0.5 5594.46,-0.5"/>
<text text-anchor="middle" x="5699.08" y="-218.3" font-family="Times,serif" font-size="14.00">&lt;&lt;Struct&gt;&gt;</text>
<text text-anchor="middle" x="5699.08" y="-201.5" font-family="Times,serif" font-size="14.00">Details</text>
<text text-anchor="middle" x="5699.08" y="-184.7" font-family="Times,serif" font-size="14.00">src/validators/UniqueValidator.sol</text>
<polyline fill="none" stroke="black" points="5594.46,-176.5 5803.69,-176.5 "/>
<text text-anchor="start" x="5602.46" y="-159.9" font-family="Times,serif" font-size="14.00">validator: address</text>
<text text-anchor="start" x="5602.46" y="-143.1" font-family="Times,serif" font-size="14.00">trigger: address</text>
<text text-anchor="start" x="5602.46" y="-126.3" font-family="Times,serif" font-size="14.00">resolver: address</text>
<text text-anchor="start" x="5602.46" y="-109.5" font-family="Times,serif" font-size="14.00">pricing: address</text>
<text text-anchor="start" x="5602.46" y="-92.7" font-family="Times,serif" font-size="14.00">deadline: uint256</text>
<text text-anchor="start" x="5602.46" y="-75.9" font-family="Times,serif" font-size="14.00">collateral: SpentItem</text>
<text text-anchor="start" x="5602.46" y="-59.1" font-family="Times,serif" font-size="14.00">debt: ReceivedItem</text>
<text text-anchor="start" x="5602.46" y="-42.3" font-family="Times,serif" font-size="14.00">pricingData: bytes</text>
<text text-anchor="start" x="5602.46" y="-25.5" font-family="Times,serif" font-size="14.00">resolverData: bytes</text>
<text text-anchor="start" x="5602.46" y="-8.7" font-family="Times,serif" font-size="14.00">triggerData: bytes</text>
</g>
<!-- 18 -->
<g id="node20" class="node">
<title>18</title>
<polygon fill="#f2f2f2" stroke="black" points="5399.49,-452.3 5399.49,-619.5 5998.67,-619.5 5998.67,-452.3 5399.49,-452.3"/>
<text text-anchor="middle" x="5699.08" y="-602.9" font-family="Times,serif" font-size="14.00">UniqueValidator</text>
<text text-anchor="middle" x="5699.08" y="-586.1" font-family="Times,serif" font-size="14.00">src/validators/UniqueValidator.sol</text>
<polyline fill="none" stroke="black" points="5399.49,-577.9 5998.67,-577.9 "/>
<text text-anchor="start" x="5407.49" y="-561.3" font-family="Times,serif" font-size="14.00">Internal:</text>
<text text-anchor="start" x="5407.49" y="-544.5" font-family="Times,serif" font-size="14.00"> &#160;&#160;&#160;_decodeLoanDetails(nlrDetails: bytes): (details: Details)</text>
<text text-anchor="start" x="5407.49" y="-527.7" font-family="Times,serif" font-size="14.00"> &#160;&#160;&#160;_validateExecution(details: Details, loan: LoanManager.Loan, nlrDetails: bytes, signature: Signature)</text>
<text text-anchor="start" x="5407.49" y="-510.9" font-family="Times,serif" font-size="14.00">External:</text>
<text text-anchor="start" x="5407.49" y="-494.1" font-family="Times,serif" font-size="14.00"> &#160;&#160;&#160;validate(loan: LoanManager.Loan, nlrDetails: bytes, signature: Signature): (address, address)</text>
<text text-anchor="start" x="5407.49" y="-477.3" font-family="Times,serif" font-size="14.00">Public:</text>
<text text-anchor="start" x="5407.49" y="-460.5" font-family="Times,serif" font-size="14.00"> &#160;&#160;&#160;constructor(LM_: LoanManager, CI_: ConduitControllerInterface, strategist_: address, fee_: uint256)</text>
</g>
<!-- 19&#45;&gt;18 -->
<g id="edge20" class="edge">
<title>19&#45;&gt;18</title>
<path fill="none" stroke="black" d="M5692.95,-234.91C5692.02,-299.49 5692.13,-378.84 5693.3,-439.7"/>
<polygon fill="black" stroke="black" points="5693.31,-440.01 5697.43,-445.93 5693.56,-452.01 5689.44,-446.09 5693.31,-440.01"/>
</g>
<!-- 18&#45;&gt;19 -->
<g id="edge23" class="edge">
<title>18&#45;&gt;19</title>
<path fill="none" stroke="black" stroke-dasharray="5,2" d="M5704.6,-452.01C5705.93,-392.87 5706.18,-312.27 5705.34,-245.14"/>
<polygon fill="black" stroke="black" points="5708.84,-244.86 5705.21,-234.91 5701.84,-244.96 5708.84,-244.86"/>
</g>
<!-- 21 -->
<g id="node21" class="node">
<title>21</title>
<polygon fill="#f2f2f2" stroke="black" points="5615.07,-1284.3 5615.07,-1401.1 5783.09,-1401.1 5783.09,-1284.3 5615.07,-1284.3"/>
<text text-anchor="middle" x="5699.08" y="-1384.5" font-family="Times,serif" font-size="14.00">&lt;&lt;Struct&gt;&gt;</text>
<text text-anchor="middle" x="5699.08" y="-1367.7" font-family="Times,serif" font-size="14.00">Signature</text>
<text text-anchor="middle" x="5699.08" y="-1350.9" font-family="Times,serif" font-size="14.00">src/validators/Validator.sol</text>
<polyline fill="none" stroke="black" points="5615.07,-1342.7 5783.09,-1342.7 "/>
<text text-anchor="start" x="5623.07" y="-1326.1" font-family="Times,serif" font-size="14.00">v: uint8</text>
<text text-anchor="start" x="5623.07" y="-1309.3" font-family="Times,serif" font-size="14.00">r: bytes32</text>
<text text-anchor="start" x="5623.07" y="-1292.5" font-family="Times,serif" font-size="14.00">s: bytes32</text>
</g>
<!-- 18&#45;&gt;21 -->
<g id="edge22" class="edge">
<title>18&#45;&gt;21</title>
<path fill="none" stroke="black" stroke-dasharray="5,2" d="M5573.73,-619.68C5505.52,-672.59 5427.58,-747.82 5390.08,-836.4 5318.79,-1004.77 5281.19,-1100.91 5390.08,-1247.8 5415.93,-1282.68 5523.6,-1309.72 5604.63,-1325.65"/>
<polygon fill="black" stroke="black" points="5604.39,-1329.17 5614.87,-1327.63 5605.72,-1322.29 5604.39,-1329.17"/>
</g>
<!-- 20 -->
<g id="node22" class="node">
<title>20</title>
<polygon fill="#f2f2f2" stroke="black" points="5399.49,-836.9 5399.49,-1247.3 5998.67,-1247.3 5998.67,-836.9 5399.49,-836.9"/>
<text text-anchor="middle" x="5699.08" y="-1230.7" font-family="Times,serif" font-size="14.00">&lt;&lt;Abstract&gt;&gt;</text>
<text text-anchor="middle" x="5699.08" y="-1213.9" font-family="Times,serif" font-size="14.00">Validator</text>
<text text-anchor="middle" x="5699.08" y="-1197.1" font-family="Times,serif" font-size="14.00">src/validators/Validator.sol</text>
<polyline fill="none" stroke="black" points="5399.49,-1188.9 5998.67,-1188.9 "/>
<text text-anchor="start" x="5407.49" y="-1172.3" font-family="Times,serif" font-size="14.00">Private:</text>
<text text-anchor="start" x="5407.49" y="-1155.5" font-family="Times,serif" font-size="14.00"> &#160;&#160;_counter: mapping(address=&gt;uint256)</text>
<text text-anchor="start" x="5407.49" y="-1138.7" font-family="Times,serif" font-size="14.00">Public:</text>
<text text-anchor="start" x="5407.49" y="-1121.9" font-family="Times,serif" font-size="14.00"> &#160;&#160;LM: LoanManager</text>
<text text-anchor="start" x="5407.49" y="-1105.1" font-family="Times,serif" font-size="14.00"> &#160;&#160;CI: ConduitControllerInterface</text>
<text text-anchor="start" x="5407.49" y="-1088.3" font-family="Times,serif" font-size="14.00"> &#160;&#160;conduit: ConduitInterface</text>
<text text-anchor="start" x="5407.49" y="-1071.5" font-family="Times,serif" font-size="14.00"> &#160;&#160;EIP_DOMAIN: bytes32</text>
<text text-anchor="start" x="5407.49" y="-1054.7" font-family="Times,serif" font-size="14.00"> &#160;&#160;VALIDATOR_TYPEHASH: bytes32</text>
<text text-anchor="start" x="5407.49" y="-1037.9" font-family="Times,serif" font-size="14.00"> &#160;&#160;VERSION: bytes32</text>
<text text-anchor="start" x="5407.49" y="-1021.1" font-family="Times,serif" font-size="14.00"> &#160;&#160;strategist: address</text>
<text text-anchor="start" x="5407.49" y="-1004.3" font-family="Times,serif" font-size="14.00"> &#160;&#160;strategistFee: uint256</text>
<polyline fill="none" stroke="black" points="5399.49,-996.1 5998.67,-996.1 "/>
<text text-anchor="start" x="5407.49" y="-979.5" font-family="Times,serif" font-size="14.00">External:</text>
<text text-anchor="start" x="5407.49" y="-962.7" font-family="Times,serif" font-size="14.00"> &#160;&#160;&#160;&lt;&lt;abstract&gt;&gt; validate(LoanManager.Loan, bytes, Signature): (address, address)</text>
<text text-anchor="start" x="5407.49" y="-945.9" font-family="Times,serif" font-size="14.00"> &#160;&#160;&#160;incrementCounter()</text>
<text text-anchor="start" x="5407.49" y="-929.1" font-family="Times,serif" font-size="14.00">Public:</text>
<text text-anchor="start" x="5407.49" y="-912.3" font-family="Times,serif" font-size="14.00"> &#160;&#160;&#160;constructor(LM_: LoanManager, CI_: ConduitControllerInterface, strategist_: address, fee_: uint256)</text>
<text text-anchor="start" x="5407.49" y="-895.5" font-family="Times,serif" font-size="14.00"> &#160;&#160;&#160;encodeWithAccountCounter(account: address, context: bytes): bytes</text>
<text text-anchor="start" x="5407.49" y="-878.7" font-family="Times,serif" font-size="14.00"> &#160;&#160;&#160;getStrategistData(): (address, uint256)</text>
<text text-anchor="start" x="5407.49" y="-861.9" font-family="Times,serif" font-size="14.00"> &#160;&#160;&#160;getCounter(account: address): uint256</text>
<text text-anchor="start" x="5407.49" y="-845.1" font-family="Times,serif" font-size="14.00"> &#160;&#160;&#160;domainSeparator(): bytes32</text>
</g>
<!-- 18&#45;&gt;20 -->
<g id="edge21" class="edge">
<title>18&#45;&gt;20</title>
<path fill="none" stroke="black" d="M5699.08,-619.59C5699.08,-670.89 5699.08,-739.6 5699.08,-806.64"/>
<polygon fill="none" stroke="black" points="5688.58,-806.74 5699.08,-836.74 5709.58,-806.74 5688.58,-806.74"/>
</g>
<!-- 21&#45;&gt;20 -->
<g id="edge24" class="edge">
<title>21&#45;&gt;20</title>
<path fill="none" stroke="black" d="M5704.54,-1284.13C5704.78,-1276.52 5705,-1268.38 5705.17,-1259.88"/>
<polygon fill="black" stroke="black" points="5705.18,-1259.63 5701.29,-1253.56 5705.4,-1247.63 5709.29,-1253.7 5705.18,-1259.63"/>
</g>
<!-- 20&#45;&gt;21 -->
<g id="edge25" class="edge">
<title>20&#45;&gt;21</title>
<path fill="none" stroke="black" stroke-dasharray="5,2" d="M5692.76,-1247.63C5692.91,-1256.75 5693.09,-1265.55 5693.32,-1273.87"/>
<polygon fill="black" stroke="black" points="5689.83,-1274.24 5693.62,-1284.13 5696.82,-1274.03 5689.83,-1274.24"/>
</g>
</g>
</svg>
