<?xml version="1.0" encoding="UTF-8" standalone="no"?>
<!DOCTYPE svg PUBLIC "-//W3C//DTD SVG 1.1//EN"
 "http://www.w3.org/Graphics/SVG/1.1/DTD/svg11.dtd">
<!-- Generated by graphviz version 5.0.0 (20220707.1540)
 -->
<!-- Title: UmlClassDiagram Pages: 1 -->
<svg width="7733pt" height="1181pt"
 viewBox="0.00 0.00 7732.54 1180.60" xmlns="http://www.w3.org/2000/svg" xmlns:xlink="http://www.w3.org/1999/xlink">
<g id="graph0" class="graph" transform="scale(1 1) rotate(0) translate(4 1176.6)">
<title>UmlClassDiagram</title>
<polygon fill="white" stroke="transparent" points="-4,4 -4,-1176.6 7728.54,-1176.6 7728.54,4 -4,4"/>
<!-- 1 -->
<g id="node1" class="node">
<title>1</title>
<polygon fill="#f2f2f2" stroke="black" points="368.79,-50.9 368.79,-184.5 503.36,-184.5 503.36,-50.9 368.79,-50.9"/>
<text text-anchor="middle" x="436.08" y="-167.9" font-family="Times,serif" font-size="14.00">&lt;&lt;Enum&gt;&gt;</text>
<text text-anchor="middle" x="436.08" y="-151.1" font-family="Times,serif" font-size="14.00">Action</text>
<text text-anchor="middle" x="436.08" y="-134.3" font-family="Times,serif" font-size="14.00">src/LoanManager.sol</text>
<polyline fill="none" stroke="black" points="368.79,-126.1 503.36,-126.1 "/>
<text text-anchor="start" x="376.79" y="-109.5" font-family="Times,serif" font-size="14.00">ASK: 0</text>
<text text-anchor="start" x="376.79" y="-92.7" font-family="Times,serif" font-size="14.00">MATCH: 1</text>
<text text-anchor="start" x="376.79" y="-75.9" font-family="Times,serif" font-size="14.00">LOCK: 2</text>
<text text-anchor="start" x="376.79" y="-59.1" font-family="Times,serif" font-size="14.00">UNLOCK: 3</text>
</g>
<!-- 0 -->
<g id="node5" class="node">
<title>0</title>
<polygon fill="#f2f2f2" stroke="black" points="0,-271.9 0,-883.9 1052.16,-883.9 1052.16,-271.9 0,-271.9"/>
<text text-anchor="middle" x="526.08" y="-867.3" font-family="Times,serif" font-size="14.00">LoanManager</text>
<text text-anchor="middle" x="526.08" y="-850.5" font-family="Times,serif" font-size="14.00">src/LoanManager.sol</text>
<polyline fill="none" stroke="black" points="0,-842.3 1052.16,-842.3 "/>
<text text-anchor="start" x="8" y="-825.7" font-family="Times,serif" font-size="14.00">Private:</text>
<text text-anchor="start" x="8" y="-808.9" font-family="Times,serif" font-size="14.00"> &#160;&#160;ONE_WORD: uint256</text>
<text text-anchor="start" x="8" y="-792.1" font-family="Times,serif" font-size="14.00">Public:</text>
<text text-anchor="start" x="8" y="-775.3" font-family="Times,serif" font-size="14.00"> &#160;&#160;loanCount: uint96</text>
<text text-anchor="start" x="8" y="-758.5" font-family="Times,serif" font-size="14.00"> &#160;&#160;feeRecipient: address</text>
<text text-anchor="start" x="8" y="-741.7" font-family="Times,serif" font-size="14.00"> &#160;&#160;fee: uint256</text>
<text text-anchor="start" x="8" y="-724.9" font-family="Times,serif" font-size="14.00"> &#160;&#160;seaport: ConsiderationInterface</text>
<text text-anchor="start" x="8" y="-708.1" font-family="Times,serif" font-size="14.00"> &#160;&#160;CI: ConduitControllerInterface</text>
<polyline fill="none" stroke="black" points="0,-699.9 1052.16,-699.9 "/>
<text text-anchor="start" x="8" y="-683.3" font-family="Times,serif" font-size="14.00">Internal:</text>
<text text-anchor="start" x="8" y="-666.5" font-family="Times,serif" font-size="14.00"> &#160;&#160;&#160;_previewLock(caller: address, fulfiller: address, minimumReceived: SpentItem[], maximumSpent: SpentItem[], context: bytes): (offer: SpentItem[], consideration: ReceivedItem[])</text>
<text text-anchor="start" x="8" y="-649.7" font-family="Times,serif" font-size="14.00"> &#160;&#160;&#160;_previewUnlock(caller: address, fulfiller: address, minimumReceived: SpentItem[], maximumSpent: SpentItem[], context: bytes): (offer: SpentItem[], consideration: ReceivedItem[])</text>
<text text-anchor="start" x="8" y="-632.9" font-family="Times,serif" font-size="14.00"> &#160;&#160;&#160;_setOfferApprovals(offer: SpentItem[])</text>
<text text-anchor="start" x="8" y="-616.1" font-family="Times,serif" font-size="14.00"> &#160;&#160;&#160;_executeLock(consideration: ReceivedItem[], context: bytes)</text>
<text text-anchor="start" x="8" y="-599.3" font-family="Times,serif" font-size="14.00"> &#160;&#160;&#160;_executeUnlock(consideration: ReceivedItem[], context: bytes)</text>
<text text-anchor="start" x="8" y="-582.5" font-family="Times,serif" font-size="14.00"> &#160;&#160;&#160;_packageTransfers(loan: LoanManager.Loan, lender: address): (transfers: ConduitTransfer[])</text>
<text text-anchor="start" x="8" y="-565.7" font-family="Times,serif" font-size="14.00">External:</text>
<text text-anchor="start" x="8" y="-548.9" font-family="Times,serif" font-size="14.00"> &#160;&#160;&#160;onERC1155Received(address, address, uint256, uint256, bytes): bytes4</text>
<text text-anchor="start" x="8" y="-532.1" font-family="Times,serif" font-size="14.00"> &#160;&#160;&#160;onERC1155BatchReceived(address, address, uint256[], uint256[], bytes): bytes4</text>
<text text-anchor="start" x="8" y="-515.3" font-family="Times,serif" font-size="14.00"> &#160;&#160;&#160;getSeaportMetadata(): (name: string, schemas: Schema[])</text>
<text text-anchor="start" x="8" y="-498.5" font-family="Times,serif" font-size="14.00"> &#160;&#160;&#160;generateOrder(fulfiller: address, minimumReceived: SpentItem[], maximumSpent: SpentItem[], context: bytes): (offer: SpentItem[], consideration: ReceivedItem[]) &lt;&lt;onlySeaport&gt;&gt;</text>
<text text-anchor="start" x="8" y="-481.7" font-family="Times,serif" font-size="14.00"> &#160;&#160;&#160;ratifyOrder(offer: SpentItem[], consideration: ReceivedItem[], context: bytes, orderHashes: bytes32[], contractNonce: uint256): (ratifyOrderMagicValue: bytes4) &lt;&lt;onlySeaport&gt;&gt;</text>
<text text-anchor="start" x="8" y="-464.9" font-family="Times,serif" font-size="14.00">Public:</text>
<text text-anchor="start" x="8" y="-448.1" font-family="Times,serif" font-size="14.00"> &#160;&#160;&#160;&lt;&lt;event&gt;&gt; Lock(loanId: uint256, loan: Loan)</text>
<text text-anchor="start" x="8" y="-431.3" font-family="Times,serif" font-size="14.00"> &#160;&#160;&#160;&lt;&lt;event&gt;&gt; Unlock(loanId: uint256)</text>
<text text-anchor="start" x="8" y="-414.5" font-family="Times,serif" font-size="14.00"> &#160;&#160;&#160;&lt;&lt;event&gt;&gt; SeaportCompatibleContractDeployed()</text>
<text text-anchor="start" x="8" y="-397.7" font-family="Times,serif" font-size="14.00"> &#160;&#160;&#160;&lt;&lt;modifier&gt;&gt; onlySeaport()</text>
<text text-anchor="start" x="8" y="-380.9" font-family="Times,serif" font-size="14.00"> &#160;&#160;&#160;constructor(consideration: ConsiderationInterface)</text>
<text text-anchor="start" x="8" y="-364.1" font-family="Times,serif" font-size="14.00"> &#160;&#160;&#160;name(): string</text>
<text text-anchor="start" x="8" y="-347.3" font-family="Times,serif" font-size="14.00"> &#160;&#160;&#160;symbol(): string</text>
<text text-anchor="start" x="8" y="-330.5" font-family="Times,serif" font-size="14.00"> &#160;&#160;&#160;onERC721Received(operator: address, from: address, tokenId: uint256, data: bytes): bytes4</text>
<text text-anchor="start" x="8" y="-313.7" font-family="Times,serif" font-size="14.00"> &#160;&#160;&#160;tokenURI(tokenId: uint256): string</text>
<text text-anchor="start" x="8" y="-296.9" font-family="Times,serif" font-size="14.00"> &#160;&#160;&#160;previewOrder(caller: address, fulfiller: address, minimumReceived: SpentItem[], maximumSpent: SpentItem[], context: bytes): (offer: SpentItem[], consideration: ReceivedItem[])</text>
<text text-anchor="start" x="8" y="-280.1" font-family="Times,serif" font-size="14.00"> &#160;&#160;&#160;supportsInterface(interfaceId: bytes4): bool</text>
</g>
<!-- 1&#45;&gt;0 -->
<g id="edge2" class="edge">
<title>1&#45;&gt;0</title>
<path fill="none" stroke="black" d="M444.15,-184.84C447.79,-206.41 452.35,-231.99 457.47,-259.58"/>
<polygon fill="black" stroke="black" points="457.49,-259.72 462.52,-264.89 459.69,-271.52 454.66,-266.35 457.49,-259.72"/>
</g>
<!-- 2 -->
<g id="node2" class="node">
<title>2</title>
<polygon fill="#f2f2f2" stroke="black" points="458.79,-920.9 458.79,-1172.1 593.36,-1172.1 593.36,-920.9 458.79,-920.9"/>
<text text-anchor="middle" x="526.08" y="-1155.5" font-family="Times,serif" font-size="14.00">&lt;&lt;Struct&gt;&gt;</text>
<text text-anchor="middle" x="526.08" y="-1138.7" font-family="Times,serif" font-size="14.00">Loan</text>
<text text-anchor="middle" x="526.08" y="-1121.9" font-family="Times,serif" font-size="14.00">src/LoanManager.sol</text>
<polyline fill="none" stroke="black" points="458.79,-1113.7 593.36,-1113.7 "/>
<text text-anchor="start" x="466.79" y="-1097.1" font-family="Times,serif" font-size="14.00">collateral: SpentItem</text>
<text text-anchor="start" x="466.79" y="-1080.3" font-family="Times,serif" font-size="14.00">debt: ReceivedItem</text>
<text text-anchor="start" x="466.79" y="-1063.5" font-family="Times,serif" font-size="14.00">originator: address</text>
<text text-anchor="start" x="466.79" y="-1046.7" font-family="Times,serif" font-size="14.00">hook: address</text>
<text text-anchor="start" x="466.79" y="-1029.9" font-family="Times,serif" font-size="14.00">pricing: address</text>
<text text-anchor="start" x="466.79" y="-1013.1" font-family="Times,serif" font-size="14.00">handler: address</text>
<text text-anchor="start" x="466.79" y="-996.3" font-family="Times,serif" font-size="14.00">start: uint256</text>
<text text-anchor="start" x="466.79" y="-979.5" font-family="Times,serif" font-size="14.00">nonce: uint256</text>
<text text-anchor="start" x="466.79" y="-962.7" font-family="Times,serif" font-size="14.00">pricingData: bytes</text>
<text text-anchor="start" x="466.79" y="-945.9" font-family="Times,serif" font-size="14.00">handlerData: bytes</text>
<text text-anchor="start" x="466.79" y="-929.1" font-family="Times,serif" font-size="14.00">hookData: bytes</text>
</g>
<!-- 2&#45;&gt;0 -->
<g id="edge4" class="edge">
<title>2&#45;&gt;0</title>
<path fill="none" stroke="black" d="M532.13,-920.65C532.24,-912.62 532.34,-904.37 532.43,-895.95"/>
<polygon fill="black" stroke="black" points="532.43,-895.94 528.48,-889.91 532.54,-883.94 536.48,-889.98 532.43,-895.94"/>
</g>
<!-- 3 -->
<g id="node3" class="node">
<title>3</title>
<polygon fill="#f2f2f2" stroke="black" points="730.99,-59.3 730.99,-176.1 921.17,-176.1 921.17,-59.3 730.99,-59.3"/>
<text text-anchor="middle" x="826.08" y="-159.5" font-family="Times,serif" font-size="14.00">&lt;&lt;Struct&gt;&gt;</text>
<text text-anchor="middle" x="826.08" y="-142.7" font-family="Times,serif" font-size="14.00">NewLoanRequest</text>
<text text-anchor="middle" x="826.08" y="-125.9" font-family="Times,serif" font-size="14.00">src/LoanManager.sol</text>
<polyline fill="none" stroke="black" points="730.99,-117.7 921.17,-117.7 "/>
<text text-anchor="start" x="738.99" y="-101.1" font-family="Times,serif" font-size="14.00">loan: Loan</text>
<text text-anchor="start" x="738.99" y="-84.3" font-family="Times,serif" font-size="14.00">signature: Originator.Signature</text>
<text text-anchor="start" x="738.99" y="-67.5" font-family="Times,serif" font-size="14.00">details: bytes</text>
</g>
<!-- 3&#45;&gt;2 -->
<g id="edge1" class="edge">
<title>3&#45;&gt;2</title>
<path fill="none" stroke="black" stroke-dasharray="5,2" d="M921.3,-149.16C978.06,-172.79 1045.41,-211.76 1079.08,-271.4 1112.56,-330.71 1119.95,-829.92 1079.08,-884.4 1021.74,-960.83 741.87,-1012.92 603.64,-1034.42"/>
<polygon fill="black" stroke="black" points="602.89,-1031 593.54,-1035.98 603.95,-1037.92 602.89,-1031"/>
</g>
<!-- 3&#45;&gt;0 -->
<g id="edge5" class="edge">
<title>3&#45;&gt;0</title>
<path fill="none" stroke="black" d="M788.39,-176.27C772.84,-200.01 753.53,-229.5 732.49,-261.65"/>
<polygon fill="black" stroke="black" points="732.48,-261.66 732.54,-268.87 725.9,-271.7 725.84,-264.49 732.48,-261.66"/>
</g>
<!-- 4 -->
<g id="node4" class="node">
<title>4</title>
<polygon fill="#f2f2f2" stroke="black" points="520.99,-8.9 520.99,-226.5 713.17,-226.5 713.17,-8.9 520.99,-8.9"/>
<text text-anchor="middle" x="617.08" y="-209.9" font-family="Times,serif" font-size="14.00">&lt;&lt;Enum&gt;&gt;</text>
<text text-anchor="middle" x="617.08" y="-193.1" font-family="Times,serif" font-size="14.00">ContextErrors</text>
<text text-anchor="middle" x="617.08" y="-176.3" font-family="Times,serif" font-size="14.00">src/LoanManager.sol</text>
<polyline fill="none" stroke="black" points="520.99,-168.1 713.17,-168.1 "/>
<text text-anchor="start" x="528.99" y="-151.5" font-family="Times,serif" font-size="14.00">BAD_ORIGINATION: 0</text>
<text text-anchor="start" x="528.99" y="-134.7" font-family="Times,serif" font-size="14.00">LENGTH_MISMATCH: 1</text>
<text text-anchor="start" x="528.99" y="-117.9" font-family="Times,serif" font-size="14.00">BORROWER_MISMATCH: 2</text>
<text text-anchor="start" x="528.99" y="-101.1" font-family="Times,serif" font-size="14.00">COLLATERAL: 3</text>
<text text-anchor="start" x="528.99" y="-84.3" font-family="Times,serif" font-size="14.00">INVALID_PAYMENT: 4</text>
<text text-anchor="start" x="528.99" y="-67.5" font-family="Times,serif" font-size="14.00">ZERO_ADDRESS: 5</text>
<text text-anchor="start" x="528.99" y="-50.7" font-family="Times,serif" font-size="14.00">INVALID_LOAN: 6</text>
<text text-anchor="start" x="528.99" y="-33.9" font-family="Times,serif" font-size="14.00">INVALID_CONDUIT: 7</text>
<text text-anchor="start" x="528.99" y="-17.1" font-family="Times,serif" font-size="14.00">INVALID_RESOLVER: 8</text>
</g>
<!-- 4&#45;&gt;0 -->
<g id="edge3" class="edge">
<title>4&#45;&gt;0</title>
<path fill="none" stroke="black" d="M595.63,-226.71C593.52,-237.31 591.32,-248.4 589.05,-259.83"/>
<polygon fill="black" stroke="black" points="589,-260.1 591.75,-266.76 586.66,-271.87 583.9,-265.2 589,-260.1"/>
</g>
<!-- 0&#45;&gt;1 -->
<g id="edge7" class="edge">
<title>0&#45;&gt;1</title>
<path fill="none" stroke="black" stroke-dasharray="5,2" d="M472.5,-271.52C466.74,-243.52 461.17,-217.24 456.17,-194.63"/>
<polygon fill="black" stroke="black" points="459.57,-193.84 453.98,-184.84 452.74,-195.36 459.57,-193.84"/>
</g>
<!-- 0&#45;&gt;2 -->
<g id="edge6" class="edge">
<title>0&#45;&gt;2</title>
<path fill="none" stroke="black" stroke-dasharray="5,2" d="M519.62,-883.94C519.7,-893 519.79,-901.9 519.89,-910.57"/>
<polygon fill="black" stroke="black" points="516.39,-910.7 520.02,-920.65 523.39,-910.61 516.39,-910.7"/>
</g>
<!-- 0&#45;&gt;0 -->
<g id="edge8" class="edge">
<title>0&#45;&gt;0</title>
<path fill="none" stroke="black" stroke-dasharray="5,2" d="M1052.24,-538.17C1063.76,-549.38 1070.16,-562.63 1070.16,-577.9 1070.16,-589.83 1066.25,-600.53 1059.05,-609.98"/>
<polygon fill="black" stroke="black" points="1056.27,-607.84 1052.24,-617.63 1061.5,-612.49 1056.27,-607.84"/>
</g>
<!-- 6 -->
<g id="node6" class="node">
<title>6</title>
<polygon fill="#f2f2f2" stroke="black" points="1472.19,-59.3 1472.19,-176.1 1703.97,-176.1 1703.97,-59.3 1472.19,-59.3"/>
<text text-anchor="middle" x="1588.08" y="-159.5" font-family="Times,serif" font-size="14.00">&lt;&lt;Struct&gt;&gt;</text>
<text text-anchor="middle" x="1588.08" y="-142.7" font-family="Times,serif" font-size="14.00">Details</text>
<text text-anchor="middle" x="1588.08" y="-125.9" font-family="Times,serif" font-size="14.00">src/handlers/DutchAuctionHandler.sol</text>
<polyline fill="none" stroke="black" points="1472.19,-117.7 1703.97,-117.7 "/>
<text text-anchor="start" x="1480.19" y="-101.1" font-family="Times,serif" font-size="14.00">startingPrice: uint256</text>
<text text-anchor="start" x="1480.19" y="-84.3" font-family="Times,serif" font-size="14.00">endingPrice: uint256</text>
<text text-anchor="start" x="1480.19" y="-67.5" font-family="Times,serif" font-size="14.00">window: uint256</text>
</g>
<!-- 5 -->
<g id="node7" class="node">
<title>5</title>
<polygon fill="#f2f2f2" stroke="black" points="1125.59,-536.3 1125.59,-619.5 2050.56,-619.5 2050.56,-536.3 1125.59,-536.3"/>
<text text-anchor="middle" x="1588.08" y="-602.9" font-family="Times,serif" font-size="14.00">DutchAuctionHandler</text>
<text text-anchor="middle" x="1588.08" y="-586.1" font-family="Times,serif" font-size="14.00">src/handlers/DutchAuctionHandler.sol</text>
<polyline fill="none" stroke="black" points="1125.59,-577.9 2050.56,-577.9 "/>
<text text-anchor="start" x="1133.59" y="-561.3" font-family="Times,serif" font-size="14.00">External:</text>
<text text-anchor="start" x="1133.59" y="-544.5" font-family="Times,serif" font-size="14.00"> &#160;&#160;&#160;getSettlement(loan: LoanManager.Loan, maximumSpent: SpentItem[], owing: uint256, lmOwner: address): (consideration: ReceivedItem[], restricted: address)</text>
</g>
<!-- 6&#45;&gt;5 -->
<g id="edge9" class="edge">
<title>6&#45;&gt;5</title>
<path fill="none" stroke="black" d="M1583.42,-176.27C1580.58,-265.84 1580.63,-437.27 1583.57,-523.94"/>
<polygon fill="black" stroke="black" points="1583.58,-524.1 1587.8,-529.95 1584.03,-536.1 1579.8,-530.25 1583.58,-524.1"/>
</g>
<!-- 5&#45;&gt;6 -->
<g id="edge10" class="edge">
<title>5&#45;&gt;6</title>
<path fill="none" stroke="black" stroke-dasharray="5,2" d="M1592.13,-536.1C1595.39,-457.21 1595.7,-283.06 1593.04,-186.51"/>
<polygon fill="black" stroke="black" points="1596.53,-186.16 1592.74,-176.27 1589.53,-186.37 1596.53,-186.16"/>
</g>
<!-- 8 -->
<g id="node8" class="node">
<title>8</title>
<polygon fill="#f2f2f2" stroke="black" points="2410.91,-67.7 2410.91,-167.7 2651.25,-167.7 2651.25,-67.7 2410.91,-67.7"/>
<text text-anchor="middle" x="2531.08" y="-151.1" font-family="Times,serif" font-size="14.00">&lt;&lt;Struct&gt;&gt;</text>
<text text-anchor="middle" x="2531.08" y="-134.3" font-family="Times,serif" font-size="14.00">Details</text>
<text text-anchor="middle" x="2531.08" y="-117.5" font-family="Times,serif" font-size="14.00">src/handlers/EnglishAuctionHandler.sol</text>
<polyline fill="none" stroke="black" points="2410.91,-109.3 2651.25,-109.3 "/>
<text text-anchor="start" x="2418.91" y="-92.7" font-family="Times,serif" font-size="14.00">reservePrice: uint256</text>
<text text-anchor="start" x="2418.91" y="-75.9" font-family="Times,serif" font-size="14.00">window: uint256</text>
</g>
<!-- 7 -->
<g id="node9" class="node">
<title>7</title>
<polygon fill="#f2f2f2" stroke="black" points="2068.59,-465.1 2068.59,-690.7 2993.56,-690.7 2993.56,-465.1 2068.59,-465.1"/>
<text text-anchor="middle" x="2531.08" y="-674.1" font-family="Times,serif" font-size="14.00">EnglishAuctionHandler</text>
<text text-anchor="middle" x="2531.08" y="-657.3" font-family="Times,serif" font-size="14.00">src/handlers/EnglishAuctionHandler.sol</text>
<polyline fill="none" stroke="black" points="2068.59,-649.1 2993.56,-649.1 "/>
<text text-anchor="start" x="2076.59" y="-632.5" font-family="Times,serif" font-size="14.00">Public:</text>
<text text-anchor="start" x="2076.59" y="-615.7" font-family="Times,serif" font-size="14.00"> &#160;&#160;LM: LoanManager</text>
<text text-anchor="start" x="2076.59" y="-598.9" font-family="Times,serif" font-size="14.00"> &#160;&#160;consideration: ConsiderationInterface</text>
<text text-anchor="start" x="2076.59" y="-582.1" font-family="Times,serif" font-size="14.00"> &#160;&#160;ENGLISH_AUCTION_ZONE: address</text>
<polyline fill="none" stroke="black" points="2068.59,-573.9 2993.56,-573.9 "/>
<text text-anchor="start" x="2076.59" y="-557.3" font-family="Times,serif" font-size="14.00">External:</text>
<text text-anchor="start" x="2076.59" y="-540.5" font-family="Times,serif" font-size="14.00"> &#160;&#160;&#160;execute(loan: LoanManager.Loan): bytes4</text>
<text text-anchor="start" x="2076.59" y="-523.7" font-family="Times,serif" font-size="14.00"> &#160;&#160;&#160;getSettlement(loan: LoanManager.Loan, maximumSpent: SpentItem[], owing: uint256, lmOwner: address): (consideration: ReceivedItem[], restricted: address)</text>
<text text-anchor="start" x="2076.59" y="-506.9" font-family="Times,serif" font-size="14.00"> &#160;&#160;&#160;liquidate(loan: LoanManager.Loan)</text>
<text text-anchor="start" x="2076.59" y="-490.1" font-family="Times,serif" font-size="14.00">Public:</text>
<text text-anchor="start" x="2076.59" y="-473.3" font-family="Times,serif" font-size="14.00"> &#160;&#160;&#160;constructor(LM_: LoanManager, consideration_: ConsiderationInterface)</text>
</g>
<!-- 8&#45;&gt;7 -->
<g id="edge11" class="edge">
<title>8&#45;&gt;7</title>
<path fill="none" stroke="black" d="M2526.71,-167.74C2524.28,-235.19 2523.71,-358.91 2525,-452.71"/>
<polygon fill="black" stroke="black" points="2525,-452.87 2529.09,-458.81 2525.18,-464.87 2521.09,-458.93 2525,-452.87"/>
</g>
<!-- 7&#45;&gt;8 -->
<g id="edge12" class="edge">
<title>7&#45;&gt;8</title>
<path fill="none" stroke="black" stroke-dasharray="5,2" d="M2536.97,-464.87C2538.42,-374.32 2538.03,-250.42 2535.79,-178.03"/>
<polygon fill="black" stroke="black" points="2539.28,-177.61 2535.45,-167.74 2532.28,-177.85 2539.28,-177.61"/>
</g>
<!-- 9 -->
<g id="node10" class="node">
<title>9</title>
<polygon fill="#f2f2f2" stroke="black" points="2669,-76.1 2669,-159.3 3511.16,-159.3 3511.16,-76.1 2669,-76.1"/>
<text text-anchor="middle" x="3090.08" y="-142.7" font-family="Times,serif" font-size="14.00">LenderRestrictedHandler</text>
<text text-anchor="middle" x="3090.08" y="-125.9" font-family="Times,serif" font-size="14.00">src/handlers/LenderRestrictedHandler.sol</text>
<polyline fill="none" stroke="black" points="2669,-117.7 3511.16,-117.7 "/>
<text text-anchor="start" x="2677" y="-101.1" font-family="Times,serif" font-size="14.00">External:</text>
<text text-anchor="start" x="2677" y="-84.3" font-family="Times,serif" font-size="14.00"> &#160;&#160;&#160;getSettlement(loan: LoanManager.Loan, maximumSpent: SpentItem[], owing: uint256, lmOwner: address): (ReceivedItem[], restricted: address)</text>
</g>
<!-- 10 -->
<g id="node11" class="node">
<title>10</title>
<polygon fill="#f2f2f2" stroke="black" points="3529.29,-59.3 3529.29,-176.1 4532.87,-176.1 4532.87,-59.3 3529.29,-59.3"/>
<text text-anchor="middle" x="4031.08" y="-159.5" font-family="Times,serif" font-size="14.00">&lt;&lt;Abstract&gt;&gt;</text>
<text text-anchor="middle" x="4031.08" y="-142.7" font-family="Times,serif" font-size="14.00">SettlementHandler</text>
<text text-anchor="middle" x="4031.08" y="-125.9" font-family="Times,serif" font-size="14.00">src/handlers/SettlementHandler.sol</text>
<polyline fill="none" stroke="black" points="3529.29,-117.7 4532.87,-117.7 "/>
<text text-anchor="start" x="3537.29" y="-101.1" font-family="Times,serif" font-size="14.00">External:</text>
<text text-anchor="start" x="3537.29" y="-84.3" font-family="Times,serif" font-size="14.00"> &#160;&#160;&#160;&lt;&lt;abstract&gt;&gt; getSettlement(loan: LoanManager.Loan, maximumSpent: SpentItem[], owing: uint256, lmOwner: address): (consideration: ReceivedItem[], restricted: address)</text>
<text text-anchor="start" x="3537.29" y="-67.5" font-family="Times,serif" font-size="14.00"> &#160;&#160;&#160;execute(loan: LoanManager.Loan): bytes4</text>
</g>
<!-- 10&#45;&gt;10 -->
<g id="edge13" class="edge">
<title>10&#45;&gt;10</title>
<path fill="none" stroke="black" stroke-dasharray="5,2" d="M4162.57,-59.22C4338.04,-8.08 4550.87,-27.58 4550.87,-117.7 4550.87,-206.15 4345.87,-226.57 4172.38,-178.96"/>
<polygon fill="black" stroke="black" points="4173.15,-175.54 4162.57,-176.18 4171.24,-182.27 4173.15,-175.54"/>
</g>
<!-- 12 -->
<g id="node12" class="node">
<title>12</title>
<polygon fill="#f2f2f2" stroke="black" points="4569.22,-67.7 4569.22,-167.7 4748.94,-167.7 4748.94,-67.7 4569.22,-67.7"/>
<text text-anchor="middle" x="4659.08" y="-151.1" font-family="Times,serif" font-size="14.00">&lt;&lt;Struct&gt;&gt;</text>
<text text-anchor="middle" x="4659.08" y="-134.3" font-family="Times,serif" font-size="14.00">Details</text>
<text text-anchor="middle" x="4659.08" y="-117.5" font-family="Times,serif" font-size="14.00">src/hooks/ChainlinkHook.sol</text>
<polyline fill="none" stroke="black" points="4569.22,-109.3 4748.94,-109.3 "/>
<text text-anchor="start" x="4577.22" y="-92.7" font-family="Times,serif" font-size="14.00">feed: address</text>
<text text-anchor="start" x="4577.22" y="-75.9" font-family="Times,serif" font-size="14.00">ltvRatio: uint256</text>
</g>
<!-- 11 -->
<g id="node13" class="node">
<title>11</title>
<polygon fill="#f2f2f2" stroke="black" points="4528.81,-519.5 4528.81,-636.3 4789.35,-636.3 4789.35,-519.5 4528.81,-519.5"/>
<text text-anchor="middle" x="4659.08" y="-619.7" font-family="Times,serif" font-size="14.00">ChainlinkHook</text>
<text text-anchor="middle" x="4659.08" y="-602.9" font-family="Times,serif" font-size="14.00">src/hooks/ChainlinkHook.sol</text>
<polyline fill="none" stroke="black" points="4528.81,-594.7 4789.35,-594.7 "/>
<text text-anchor="start" x="4536.81" y="-578.1" font-family="Times,serif" font-size="14.00">External:</text>
<text text-anchor="start" x="4536.81" y="-561.3" font-family="Times,serif" font-size="14.00"> &#160;&#160;&#160;isActive(loan: LoanManager.Loan): bool</text>
<text text-anchor="start" x="4536.81" y="-544.5" font-family="Times,serif" font-size="14.00">Public:</text>
<text text-anchor="start" x="4536.81" y="-527.7" font-family="Times,serif" font-size="14.00"> &#160;&#160;&#160;_getLatestPrice(details: Details): int</text>
</g>
<!-- 12&#45;&gt;11 -->
<g id="edge14" class="edge">
<title>12&#45;&gt;11</title>
<path fill="none" stroke="black" d="M4654.71,-167.74C4651.77,-249.37 4651.55,-413.42 4654.06,-507.1"/>
<polygon fill="black" stroke="black" points="4654.07,-507.29 4658.24,-513.17 4654.42,-519.28 4650.25,-513.4 4654.07,-507.29"/>
</g>
<!-- 11&#45;&gt;12 -->
<g id="edge15" class="edge">
<title>11&#45;&gt;12</title>
<path fill="none" stroke="black" stroke-dasharray="5,2" d="M4663.74,-519.28C4666.51,-431.79 4666.53,-266.27 4663.79,-177.86"/>
<polygon fill="black" stroke="black" points="4667.28,-177.61 4663.45,-167.74 4660.28,-177.85 4667.28,-177.61"/>
</g>
<!-- 14 -->
<g id="node14" class="node">
<title>14</title>
<polygon fill="#f2f2f2" stroke="black" points="4844.73,-76.1 4844.73,-159.3 5031.43,-159.3 5031.43,-76.1 4844.73,-76.1"/>
<text text-anchor="middle" x="4938.08" y="-142.7" font-family="Times,serif" font-size="14.00">&lt;&lt;Struct&gt;&gt;</text>
<text text-anchor="middle" x="4938.08" y="-125.9" font-family="Times,serif" font-size="14.00">Details</text>
<text text-anchor="middle" x="4938.08" y="-109.1" font-family="Times,serif" font-size="14.00">src/hooks/FixedTermHook.sol</text>
<polyline fill="none" stroke="black" points="4844.73,-100.9 5031.43,-100.9 "/>
<text text-anchor="start" x="4852.73" y="-84.3" font-family="Times,serif" font-size="14.00">loanDuration: uint256</text>
</g>
<!-- 13 -->
<g id="node15" class="node">
<title>13</title>
<polygon fill="#f2f2f2" stroke="black" points="4807.81,-536.3 4807.81,-619.5 5068.35,-619.5 5068.35,-536.3 4807.81,-536.3"/>
<text text-anchor="middle" x="4938.08" y="-602.9" font-family="Times,serif" font-size="14.00">FixedTermHook</text>
<text text-anchor="middle" x="4938.08" y="-586.1" font-family="Times,serif" font-size="14.00">src/hooks/FixedTermHook.sol</text>
<polyline fill="none" stroke="black" points="4807.81,-577.9 5068.35,-577.9 "/>
<text text-anchor="start" x="4815.81" y="-561.3" font-family="Times,serif" font-size="14.00">External:</text>
<text text-anchor="start" x="4815.81" y="-544.5" font-family="Times,serif" font-size="14.00"> &#160;&#160;&#160;isActive(loan: LoanManager.Loan): bool</text>
</g>
<!-- 14&#45;&gt;13 -->
<g id="edge16" class="edge">
<title>14&#45;&gt;13</title>
<path fill="none" stroke="black" d="M4934.03,-159.36C4930.59,-242.39 4930.43,-431.35 4933.57,-523.87"/>
<polygon fill="black" stroke="black" points="4933.57,-524.01 4937.8,-529.85 4934.02,-536 4929.8,-530.15 4933.57,-524.01"/>
</g>
<!-- 13&#45;&gt;14 -->
<g id="edge17" class="edge">
<title>13&#45;&gt;14</title>
<path fill="none" stroke="black" stroke-dasharray="5,2" d="M4942.14,-536C4945.6,-452.18 4945.72,-261.09 4942.51,-169.5"/>
<polygon fill="black" stroke="black" points="4946,-169.22 4942.13,-159.36 4939.01,-169.49 4946,-169.22"/>
</g>
<!-- 15 -->
<g id="node16" class="node">
<title>15</title>
<polygon fill="#f2f2f2" stroke="black" points="5049.5,-67.7 5049.5,-167.7 5388.65,-167.7 5388.65,-67.7 5049.5,-67.7"/>
<text text-anchor="middle" x="5219.08" y="-151.1" font-family="Times,serif" font-size="14.00">&lt;&lt;Abstract&gt;&gt;</text>
<text text-anchor="middle" x="5219.08" y="-134.3" font-family="Times,serif" font-size="14.00">SettlementHook</text>
<text text-anchor="middle" x="5219.08" y="-117.5" font-family="Times,serif" font-size="14.00">src/hooks/SettlementHook.sol</text>
<polyline fill="none" stroke="black" points="5049.5,-109.3 5388.65,-109.3 "/>
<text text-anchor="start" x="5057.5" y="-92.7" font-family="Times,serif" font-size="14.00">External:</text>
<text text-anchor="start" x="5057.5" y="-75.9" font-family="Times,serif" font-size="14.00"> &#160;&#160;&#160;&lt;&lt;abstract&gt;&gt; isActive(loan: LoanManager.Loan): bool</text>
</g>
<!-- 16 -->
<g id="node17" class="node">
<title>16</title>
<polygon fill="#f2f2f2" stroke="black" points="5407.14,-50.9 5407.14,-184.5 5955.02,-184.5 5955.02,-50.9 5407.14,-50.9"/>
<text text-anchor="middle" x="5681.08" y="-167.9" font-family="Times,serif" font-size="14.00">&lt;&lt;Interface&gt;&gt;</text>
<text text-anchor="middle" x="5681.08" y="-151.1" font-family="Times,serif" font-size="14.00">TokenReceiverInterface</text>
<text text-anchor="middle" x="5681.08" y="-134.3" font-family="Times,serif" font-size="14.00">src/interfaces/TokenReceiverInterface.sol</text>
<polyline fill="none" stroke="black" points="5407.14,-126.1 5955.02,-126.1 "/>
<text text-anchor="start" x="5415.14" y="-109.5" font-family="Times,serif" font-size="14.00">External:</text>
<text text-anchor="start" x="5415.14" y="-92.7" font-family="Times,serif" font-size="14.00"> &#160;&#160;&#160;&#160;onERC721Received(operator: address, from: address, tokenId: uint256, data: bytes): bytes4</text>
<text text-anchor="start" x="5415.14" y="-75.9" font-family="Times,serif" font-size="14.00"> &#160;&#160;&#160;&#160;onERC1155Received(address, address, uint256, uint256, bytes): bytes4</text>
<text text-anchor="start" x="5415.14" y="-59.1" font-family="Times,serif" font-size="14.00"> &#160;&#160;&#160;&#160;onERC1155BatchReceived(address, address, uint256[], uint256[], bytes): bytes4</text>
</g>
<!-- 18 -->
<g id="node18" class="node">
<title>18</title>
<polygon fill="#f2f2f2" stroke="black" points="5972.62,-59.3 5972.62,-176.1 6151.54,-176.1 6151.54,-59.3 5972.62,-59.3"/>
<text text-anchor="middle" x="6062.08" y="-159.5" font-family="Times,serif" font-size="14.00">&lt;&lt;Struct&gt;&gt;</text>
<text text-anchor="middle" x="6062.08" y="-142.7" font-family="Times,serif" font-size="14.00">Signature</text>
<text text-anchor="middle" x="6062.08" y="-125.9" font-family="Times,serif" font-size="14.00">src/originators/Originator.sol</text>
<polyline fill="none" stroke="black" points="5972.62,-117.7 6151.54,-117.7 "/>
<text text-anchor="start" x="5980.62" y="-101.1" font-family="Times,serif" font-size="14.00">v: uint8</text>
<text text-anchor="start" x="5980.62" y="-84.3" font-family="Times,serif" font-size="14.00">r: bytes32</text>
<text text-anchor="start" x="5980.62" y="-67.5" font-family="Times,serif" font-size="14.00">s: bytes32</text>
</g>
<!-- 17 -->
<g id="node20" class="node">
<title>17</title>
<polygon fill="#f2f2f2" stroke="black" points="5762.49,-355.9 5762.49,-799.9 6361.67,-799.9 6361.67,-355.9 5762.49,-355.9"/>
<text text-anchor="middle" x="6062.08" y="-783.3" font-family="Times,serif" font-size="14.00">&lt;&lt;Abstract&gt;&gt;</text>
<text text-anchor="middle" x="6062.08" y="-766.5" font-family="Times,serif" font-size="14.00">Originator</text>
<text text-anchor="middle" x="6062.08" y="-749.7" font-family="Times,serif" font-size="14.00">src/originators/Originator.sol</text>
<polyline fill="none" stroke="black" points="5762.49,-741.5 6361.67,-741.5 "/>
<text text-anchor="start" x="5770.49" y="-724.9" font-family="Times,serif" font-size="14.00">Private:</text>
<text text-anchor="start" x="5770.49" y="-708.1" font-family="Times,serif" font-size="14.00"> &#160;&#160;_counter: mapping(address=&gt;uint256)</text>
<text text-anchor="start" x="5770.49" y="-691.3" font-family="Times,serif" font-size="14.00">Public:</text>
<text text-anchor="start" x="5770.49" y="-674.5" font-family="Times,serif" font-size="14.00"> &#160;&#160;LM: LoanManager</text>
<text text-anchor="start" x="5770.49" y="-657.7" font-family="Times,serif" font-size="14.00"> &#160;&#160;CI: ConduitControllerInterface</text>
<text text-anchor="start" x="5770.49" y="-640.9" font-family="Times,serif" font-size="14.00"> &#160;&#160;conduit: ConduitInterface</text>
<text text-anchor="start" x="5770.49" y="-624.1" font-family="Times,serif" font-size="14.00"> &#160;&#160;EIP_DOMAIN: bytes32</text>
<text text-anchor="start" x="5770.49" y="-607.3" font-family="Times,serif" font-size="14.00"> &#160;&#160;ORIGINATOR_DETAILS_TYPEHASH: bytes32</text>
<text text-anchor="start" x="5770.49" y="-590.5" font-family="Times,serif" font-size="14.00"> &#160;&#160;VERSION: bytes32</text>
<text text-anchor="start" x="5770.49" y="-573.7" font-family="Times,serif" font-size="14.00"> &#160;&#160;strategist: address</text>
<text text-anchor="start" x="5770.49" y="-556.9" font-family="Times,serif" font-size="14.00"> &#160;&#160;strategistFee: uint256</text>
<polyline fill="none" stroke="black" points="5762.49,-548.7 6361.67,-548.7 "/>
<text text-anchor="start" x="5770.49" y="-532.1" font-family="Times,serif" font-size="14.00">Internal:</text>
<text text-anchor="start" x="5770.49" y="-515.3" font-family="Times,serif" font-size="14.00"> &#160;&#160;&#160;_validateSignature(hash: bytes32, signature: Signature)</text>
<text text-anchor="start" x="5770.49" y="-498.5" font-family="Times,serif" font-size="14.00">External:</text>
<text text-anchor="start" x="5770.49" y="-481.7" font-family="Times,serif" font-size="14.00"> &#160;&#160;&#160;&lt;&lt;abstract&gt;&gt; validate(LoanManager.Loan, bytes, Signature): Response</text>
<text text-anchor="start" x="5770.49" y="-464.9" font-family="Times,serif" font-size="14.00"> &#160;&#160;&#160;incrementCounter()</text>
<text text-anchor="start" x="5770.49" y="-448.1" font-family="Times,serif" font-size="14.00">Public:</text>
<text text-anchor="start" x="5770.49" y="-431.3" font-family="Times,serif" font-size="14.00"> &#160;&#160;&#160;constructor(LM_: LoanManager, CI_: ConduitControllerInterface, strategist_: address, fee_: uint256)</text>
<text text-anchor="start" x="5770.49" y="-414.5" font-family="Times,serif" font-size="14.00"> &#160;&#160;&#160;encodeWithAccountCounter(account: address, context: bytes): bytes</text>
<text text-anchor="start" x="5770.49" y="-397.7" font-family="Times,serif" font-size="14.00"> &#160;&#160;&#160;getStrategistData(): (address, uint256)</text>
<text text-anchor="start" x="5770.49" y="-380.9" font-family="Times,serif" font-size="14.00"> &#160;&#160;&#160;getCounter(account: address): uint256</text>
<text text-anchor="start" x="5770.49" y="-364.1" font-family="Times,serif" font-size="14.00"> &#160;&#160;&#160;domainSeparator(): bytes32</text>
</g>
<!-- 18&#45;&gt;17 -->
<g id="edge18" class="edge">
<title>18&#45;&gt;17</title>
<path fill="none" stroke="black" d="M6057.42,-176.27C6056.06,-219.34 6055.36,-281.34 6055.33,-343.74"/>
<polygon fill="black" stroke="black" points="6055.33,-343.81 6059.33,-349.8 6055.33,-355.81 6051.33,-349.81 6055.33,-343.81"/>
</g>
<!-- 19 -->
<g id="node19" class="node">
<title>19</title>
<polygon fill="#f2f2f2" stroke="black" points="5972.62,-996.5 5972.62,-1096.5 6151.54,-1096.5 6151.54,-996.5 5972.62,-996.5"/>
<text text-anchor="middle" x="6062.08" y="-1079.9" font-family="Times,serif" font-size="14.00">&lt;&lt;Struct&gt;&gt;</text>
<text text-anchor="middle" x="6062.08" y="-1063.1" font-family="Times,serif" font-size="14.00">Response</text>
<text text-anchor="middle" x="6062.08" y="-1046.3" font-family="Times,serif" font-size="14.00">src/originators/Originator.sol</text>
<polyline fill="none" stroke="black" points="5972.62,-1038.1 6151.54,-1038.1 "/>
<text text-anchor="start" x="5980.62" y="-1021.5" font-family="Times,serif" font-size="14.00">lender: address</text>
<text text-anchor="start" x="5980.62" y="-1004.7" font-family="Times,serif" font-size="14.00">conduit: address</text>
</g>
<!-- 19&#45;&gt;17 -->
<g id="edge19" class="edge">
<title>19&#45;&gt;17</title>
<path fill="none" stroke="black" d="M6066.42,-996.45C6068.03,-951.59 6068.83,-881.79 6068.83,-812.01"/>
<polygon fill="black" stroke="black" points="6068.83,-811.9 6064.82,-805.9 6068.82,-799.9 6072.82,-805.9 6068.83,-811.9"/>
</g>
<!-- 17&#45;&gt;18 -->
<g id="edge20" class="edge">
<title>17&#45;&gt;18</title>
<path fill="none" stroke="black" stroke-dasharray="5,2" d="M6068.82,-355.81C6068.88,-294.21 6068.29,-231.84 6067.04,-186.53"/>
<polygon fill="black" stroke="black" points="6070.53,-186.16 6066.74,-176.27 6063.53,-186.37 6070.53,-186.16"/>
</g>
<!-- 17&#45;&gt;19 -->
<g id="edge21" class="edge">
<title>17&#45;&gt;19</title>
<path fill="none" stroke="black" stroke-dasharray="5,2" d="M6055.34,-799.9C6055.24,-868.59 6055.93,-938.7 6057.4,-986.34"/>
<polygon fill="black" stroke="black" points="6053.91,-986.57 6057.74,-996.45 6060.91,-986.34 6053.91,-986.57"/>
</g>
<!-- 21 -->
<g id="node21" class="node">
<title>21</title>
<polygon fill="#f2f2f2" stroke="black" points="6569.01,-0.5 6569.01,-234.9 6789.14,-234.9 6789.14,-0.5 6569.01,-0.5"/>
<text text-anchor="middle" x="6679.08" y="-218.3" font-family="Times,serif" font-size="14.00">&lt;&lt;Struct&gt;&gt;</text>
<text text-anchor="middle" x="6679.08" y="-201.5" font-family="Times,serif" font-size="14.00">Details</text>
<text text-anchor="middle" x="6679.08" y="-184.7" font-family="Times,serif" font-size="14.00">src/originators/UniqueOriginator.sol</text>
<polyline fill="none" stroke="black" points="6569.01,-176.5 6789.14,-176.5 "/>
<text text-anchor="start" x="6577.01" y="-159.9" font-family="Times,serif" font-size="14.00">originator: address</text>
<text text-anchor="start" x="6577.01" y="-143.1" font-family="Times,serif" font-size="14.00">hook: address</text>
<text text-anchor="start" x="6577.01" y="-126.3" font-family="Times,serif" font-size="14.00">handler: address</text>
<text text-anchor="start" x="6577.01" y="-109.5" font-family="Times,serif" font-size="14.00">pricing: address</text>
<text text-anchor="start" x="6577.01" y="-92.7" font-family="Times,serif" font-size="14.00">deadline: uint256</text>
<text text-anchor="start" x="6577.01" y="-75.9" font-family="Times,serif" font-size="14.00">collateral: SpentItem</text>
<text text-anchor="start" x="6577.01" y="-59.1" font-family="Times,serif" font-size="14.00">debt: ReceivedItem</text>
<text text-anchor="start" x="6577.01" y="-42.3" font-family="Times,serif" font-size="14.00">pricingData: bytes</text>
<text text-anchor="start" x="6577.01" y="-25.5" font-family="Times,serif" font-size="14.00">handlerData: bytes</text>
<text text-anchor="start" x="6577.01" y="-8.7" font-family="Times,serif" font-size="14.00">hookData: bytes</text>
</g>
<!-- 20 -->
<g id="node22" class="node">
<title>20</title>
<polygon fill="#f2f2f2" stroke="black" points="6379.49,-494.3 6379.49,-661.5 6978.67,-661.5 6978.67,-494.3 6379.49,-494.3"/>
<text text-anchor="middle" x="6679.08" y="-644.9" font-family="Times,serif" font-size="14.00">UniqueOriginator</text>
<text text-anchor="middle" x="6679.08" y="-628.1" font-family="Times,serif" font-size="14.00">src/originators/UniqueOriginator.sol</text>
<polyline fill="none" stroke="black" points="6379.49,-619.9 6978.67,-619.9 "/>
<text text-anchor="start" x="6387.49" y="-603.3" font-family="Times,serif" font-size="14.00">Internal:</text>
<text text-anchor="start" x="6387.49" y="-586.5" font-family="Times,serif" font-size="14.00"> &#160;&#160;&#160;_decodeLoanDetails(nlrDetails: bytes): (details: Details)</text>
<text text-anchor="start" x="6387.49" y="-569.7" font-family="Times,serif" font-size="14.00"> &#160;&#160;&#160;_validateExecution(details: Details, loan: LoanManager.Loan, nlrDetails: bytes, signature: Signature)</text>
<text text-anchor="start" x="6387.49" y="-552.9" font-family="Times,serif" font-size="14.00">External:</text>
<text text-anchor="start" x="6387.49" y="-536.1" font-family="Times,serif" font-size="14.00"> &#160;&#160;&#160;validate(loan: LoanManager.Loan, nlrDetails: bytes, signature: Signature): (response: Response)</text>
<text text-anchor="start" x="6387.49" y="-519.3" font-family="Times,serif" font-size="14.00">Public:</text>
<text text-anchor="start" x="6387.49" y="-502.5" font-family="Times,serif" font-size="14.00"> &#160;&#160;&#160;constructor(LM_: LoanManager, CI_: ConduitControllerInterface, strategist_: address, fee_: uint256)</text>
</g>
<!-- 21&#45;&gt;20 -->
<g id="edge22" class="edge">
<title>21&#45;&gt;20</title>
<path fill="none" stroke="black" d="M6673.12,-234.92C6671.96,-311.36 6672.08,-410.15 6673.48,-481.89"/>
<polygon fill="black" stroke="black" points="6673.49,-482.06 6677.61,-487.97 6673.74,-494.06 6669.62,-488.14 6673.49,-482.06"/>
</g>
<!-- 20&#45;&gt;21 -->
<g id="edge23" class="edge">
<title>20&#45;&gt;21</title>
<path fill="none" stroke="black" stroke-dasharray="5,2" d="M6684.42,-494.06C6685.99,-424.63 6686.25,-324.41 6685.18,-244.99"/>
<polygon fill="black" stroke="black" points="6688.68,-244.86 6685.04,-234.92 6681.68,-244.96 6688.68,-244.86"/>
</g>
<!-- 23 -->
<g id="node23" class="node">
<title>23</title>
<polygon fill="#f2f2f2" stroke="black" points="7142.96,-67.7 7142.96,-167.7 7345.2,-167.7 7345.2,-67.7 7142.96,-67.7"/>
<text text-anchor="middle" x="7244.08" y="-151.1" font-family="Times,serif" font-size="14.00">&lt;&lt;Struct&gt;&gt;</text>
<text text-anchor="middle" x="7244.08" y="-134.3" font-family="Times,serif" font-size="14.00">Details</text>
<text text-anchor="middle" x="7244.08" y="-117.5" font-family="Times,serif" font-size="14.00">src/pricing/FixedTermPricing.sol</text>
<polyline fill="none" stroke="black" points="7142.96,-109.3 7345.2,-109.3 "/>
<text text-anchor="start" x="7150.96" y="-92.7" font-family="Times,serif" font-size="14.00">rate: uint256</text>
<text text-anchor="start" x="7150.96" y="-75.9" font-family="Times,serif" font-size="14.00">loanDuration: uint256</text>
</g>
<!-- 22 -->
<g id="node24" class="node">
<title>22</title>
<polygon fill="#f2f2f2" stroke="black" points="6996.38,-519.5 6996.38,-636.3 7491.77,-636.3 7491.77,-519.5 6996.38,-519.5"/>
<text text-anchor="middle" x="7244.08" y="-619.7" font-family="Times,serif" font-size="14.00">FixedTermPricing</text>
<text text-anchor="middle" x="7244.08" y="-602.9" font-family="Times,serif" font-size="14.00">src/pricing/FixedTermPricing.sol</text>
<polyline fill="none" stroke="black" points="6996.38,-594.7 7491.77,-594.7 "/>
<text text-anchor="start" x="7004.38" y="-578.1" font-family="Times,serif" font-size="14.00">Internal:</text>
<text text-anchor="start" x="7004.38" y="-561.3" font-family="Times,serif" font-size="14.00"> &#160;&#160;&#160;_getOwed(loan: LoanManager.Loan, details: Details, timestamp: uint256): uint256</text>
<text text-anchor="start" x="7004.38" y="-544.5" font-family="Times,serif" font-size="14.00">Public:</text>
<text text-anchor="start" x="7004.38" y="-527.7" font-family="Times,serif" font-size="14.00"> &#160;&#160;&#160;getOwed(loan: LoanManager.Loan): uint256</text>
</g>
<!-- 23&#45;&gt;22 -->
<g id="edge24" class="edge">
<title>23&#45;&gt;22</title>
<path fill="none" stroke="black" d="M7239.71,-167.74C7236.77,-249.37 7236.55,-413.42 7239.06,-507.1"/>
<polygon fill="black" stroke="black" points="7239.07,-507.29 7243.24,-513.17 7239.42,-519.28 7235.25,-513.4 7239.07,-507.29"/>
</g>
<!-- 22&#45;&gt;23 -->
<g id="edge25" class="edge">
<title>22&#45;&gt;23</title>
<path fill="none" stroke="black" stroke-dasharray="5,2" d="M7248.74,-519.28C7251.51,-431.79 7251.53,-266.27 7248.79,-177.86"/>
<polygon fill="black" stroke="black" points="7252.28,-177.61 7248.45,-167.74 7245.28,-177.85 7252.28,-177.61"/>
</g>
<!-- 24 -->
<g id="node25" class="node">
<title>24</title>
<polygon fill="#f2f2f2" stroke="black" points="7363.62,-67.7 7363.62,-167.7 7724.54,-167.7 7724.54,-67.7 7363.62,-67.7"/>
<text text-anchor="middle" x="7544.08" y="-151.1" font-family="Times,serif" font-size="14.00">&lt;&lt;Abstract&gt;&gt;</text>
<text text-anchor="middle" x="7544.08" y="-134.3" font-family="Times,serif" font-size="14.00">Pricing</text>
<text text-anchor="middle" x="7544.08" y="-117.5" font-family="Times,serif" font-size="14.00">src/pricing/Pricing.sol</text>
<polyline fill="none" stroke="black" points="7363.62,-109.3 7724.54,-109.3 "/>
<text text-anchor="start" x="7371.62" y="-92.7" font-family="Times,serif" font-size="14.00">Public:</text>
<text text-anchor="start" x="7371.62" y="-75.9" font-family="Times,serif" font-size="14.00"> &#160;&#160;&#160;&lt;&lt;abstract&gt;&gt; getOwed(loan: LoanManager.Loan): uint256</text>
</g>
</g>
</svg>
