<?xml version="1.0" encoding="UTF-8" standalone="no"?>
<!DOCTYPE svg PUBLIC "-//W3C//DTD SVG 1.1//EN"
 "http://www.w3.org/Graphics/SVG/1.1/DTD/svg11.dtd">
<!-- Generated by graphviz version 5.0.0 (20220707.1540)
 -->
<!-- Title: UmlClassDiagram Pages: 1 -->
<svg width="1833pt" height="1367pt"
 viewBox="0.00 0.00 1833.05 1367.20" xmlns="http://www.w3.org/2000/svg" xmlns:xlink="http://www.w3.org/1999/xlink">
<g id="graph0" class="graph" transform="scale(1 1) rotate(0) translate(4 1363.2)">
<title>UmlClassDiagram</title>
<polygon fill="white" stroke="transparent" points="-4,4 -4,-1363.2 1829.05,-1363.2 1829.05,4 -4,4"/>
<!-- 1 -->
<g id="node1" class="node">
<title>1</title>
<polygon fill="#f2f2f2" stroke="black" points="305.79,-250.7 305.79,-350.7 440.36,-350.7 440.36,-250.7 305.79,-250.7"/>
<text text-anchor="middle" x="373.08" y="-334.1" font-family="Times,serif" font-size="14.00">&lt;&lt;Enum&gt;&gt;</text>
<text text-anchor="middle" x="373.08" y="-317.3" font-family="Times,serif" font-size="14.00">Action</text>
<text text-anchor="middle" x="373.08" y="-300.5" font-family="Times,serif" font-size="14.00">src/LoanManager.sol</text>
<polyline fill="none" stroke="black" points="305.79,-292.3 440.36,-292.3 "/>
<text text-anchor="start" x="313.79" y="-275.7" font-family="Times,serif" font-size="14.00">OPEN: 0</text>
<text text-anchor="start" x="313.79" y="-258.9" font-family="Times,serif" font-size="14.00">CLOSE: 1</text>
</g>
<!-- 0 -->
<g id="node6" class="node">
<title>0</title>
<polygon fill="#f2f2f2" stroke="black" points="0,-467.3 0,-928.1 1052.16,-928.1 1052.16,-467.3 0,-467.3"/>
<text text-anchor="middle" x="526.08" y="-911.5" font-family="Times,serif" font-size="14.00">LoanManager</text>
<text text-anchor="middle" x="526.08" y="-894.7" font-family="Times,serif" font-size="14.00">src/LoanManager.sol</text>
<polyline fill="none" stroke="black" points="0,-886.5 1052.16,-886.5 "/>
<text text-anchor="start" x="8" y="-869.9" font-family="Times,serif" font-size="14.00">Private:</text>
<text text-anchor="start" x="8" y="-853.1" font-family="Times,serif" font-size="14.00"> &#160;&#160;MIN_DURATION: uint256</text>
<text text-anchor="start" x="8" y="-836.3" font-family="Times,serif" font-size="14.00">Public:</text>
<text text-anchor="start" x="8" y="-819.5" font-family="Times,serif" font-size="14.00"> &#160;&#160;seaport: ConsiderationInterface</text>
<text text-anchor="start" x="8" y="-802.7" font-family="Times,serif" font-size="14.00"> &#160;&#160;loanCount: uint256</text>
<polyline fill="none" stroke="black" points="0,-794.5 1052.16,-794.5 "/>
<text text-anchor="start" x="8" y="-777.9" font-family="Times,serif" font-size="14.00">Internal:</text>
<text text-anchor="start" x="8" y="-761.1" font-family="Times,serif" font-size="14.00"> &#160;&#160;&#160;_executeLoanOpen(consideration: ReceivedItem[], context: bytes)</text>
<text text-anchor="start" x="8" y="-744.3" font-family="Times,serif" font-size="14.00"> &#160;&#160;&#160;_executeLoanClosed(consideration: ReceivedItem[], context: bytes)</text>
<text text-anchor="start" x="8" y="-727.5" font-family="Times,serif" font-size="14.00">External:</text>
<text text-anchor="start" x="8" y="-710.7" font-family="Times,serif" font-size="14.00"> &#160;&#160;&#160;onERC1155Received(address, address, uint256, uint256, bytes): bytes4</text>
<text text-anchor="start" x="8" y="-693.9" font-family="Times,serif" font-size="14.00"> &#160;&#160;&#160;onERC1155BatchReceived(address, address, uint256[], uint256[], bytes): bytes4</text>
<text text-anchor="start" x="8" y="-677.1" font-family="Times,serif" font-size="14.00"> &#160;&#160;&#160;getSeaportMetadata(): (name: string, schemas: Schema[])</text>
<text text-anchor="start" x="8" y="-660.3" font-family="Times,serif" font-size="14.00"> &#160;&#160;&#160;generateOrder(fulfiller: address, minimumReceived: SpentItem[], maximumSpent: SpentItem[], context: bytes): (offer: SpentItem[], consideration: ReceivedItem[]) &lt;&lt;onlySeaport&gt;&gt;</text>
<text text-anchor="start" x="8" y="-643.5" font-family="Times,serif" font-size="14.00"> &#160;&#160;&#160;ratifyOrder(offer: SpentItem[], consideration: ReceivedItem[], context: bytes, orderHashes: bytes32[], contractNonce: uint256): (ratifyOrderMagicValue: bytes4) &lt;&lt;onlySeaport&gt;&gt;</text>
<text text-anchor="start" x="8" y="-626.7" font-family="Times,serif" font-size="14.00">Public:</text>
<text text-anchor="start" x="8" y="-609.9" font-family="Times,serif" font-size="14.00"> &#160;&#160;&#160;&lt;&lt;event&gt;&gt; LoanOpened(loanId: uint256, loan: Loan)</text>
<text text-anchor="start" x="8" y="-593.1" font-family="Times,serif" font-size="14.00"> &#160;&#160;&#160;&lt;&lt;event&gt;&gt; LoanClosed(loanId: uint256, consideration: ReceivedItem[])</text>
<text text-anchor="start" x="8" y="-576.3" font-family="Times,serif" font-size="14.00"> &#160;&#160;&#160;&lt;&lt;event&gt;&gt; SeaportCompatibleContractDeployed()</text>
<text text-anchor="start" x="8" y="-559.5" font-family="Times,serif" font-size="14.00"> &#160;&#160;&#160;&lt;&lt;modifier&gt;&gt; onlySeaport()</text>
<text text-anchor="start" x="8" y="-542.7" font-family="Times,serif" font-size="14.00"> &#160;&#160;&#160;constructor(consideration: ConsiderationInterface)</text>
<text text-anchor="start" x="8" y="-525.9" font-family="Times,serif" font-size="14.00"> &#160;&#160;&#160;onERC721Received(operator: address, from: address, tokenId: uint256, data: bytes): bytes4</text>
<text text-anchor="start" x="8" y="-509.1" font-family="Times,serif" font-size="14.00"> &#160;&#160;&#160;tokenURI(tokenId: uint256): string</text>
<text text-anchor="start" x="8" y="-492.3" font-family="Times,serif" font-size="14.00"> &#160;&#160;&#160;previewOrder(caller: address, fulfiller: address, minimumReceived: SpentItem[], maximumSpent: SpentItem[], context: bytes): (offer: SpentItem[], consideration: ReceivedItem[])</text>
<text text-anchor="start" x="8" y="-475.5" font-family="Times,serif" font-size="14.00"> &#160;&#160;&#160;supportsInterface(interfaceId: bytes4): bool</text>
</g>
<!-- 1&#45;&gt;0 -->
<g id="edge2" class="edge">
<title>1&#45;&gt;0</title>
<path fill="none" stroke="black" d="M387.5,-350.93C397.27,-378.81 411.02,-415.99 426.1,-455.63"/>
<polygon fill="black" stroke="black" points="426.11,-455.65 431.98,-459.83 430.39,-466.87 424.51,-462.68 426.11,-455.65"/>
</g>
<!-- 2 -->
<g id="node2" class="node">
<title>2</title>
<polygon fill="#f2f2f2" stroke="black" points="444.39,-1036.3 444.39,-1287.5 607.76,-1287.5 607.76,-1036.3 444.39,-1036.3"/>
<text text-anchor="middle" x="526.08" y="-1270.9" font-family="Times,serif" font-size="14.00">&lt;&lt;Struct&gt;&gt;</text>
<text text-anchor="middle" x="526.08" y="-1254.1" font-family="Times,serif" font-size="14.00">Loan</text>
<text text-anchor="middle" x="526.08" y="-1237.3" font-family="Times,serif" font-size="14.00">src/LoanManager.sol</text>
<polyline fill="none" stroke="black" points="444.39,-1229.1 607.76,-1229.1 "/>
<text text-anchor="start" x="452.39" y="-1212.5" font-family="Times,serif" font-size="14.00">itemType: ItemType</text>
<text text-anchor="start" x="452.39" y="-1195.7" font-family="Times,serif" font-size="14.00">borrower: address</text>
<text text-anchor="start" x="452.39" y="-1178.9" font-family="Times,serif" font-size="14.00">validator: address</text>
<text text-anchor="start" x="452.39" y="-1162.1" font-family="Times,serif" font-size="14.00">token: address</text>
<text text-anchor="start" x="452.39" y="-1145.3" font-family="Times,serif" font-size="14.00">debtToken: address</text>
<text text-anchor="start" x="452.39" y="-1128.5" font-family="Times,serif" font-size="14.00">identifier: uint256</text>
<text text-anchor="start" x="452.39" y="-1111.7" font-family="Times,serif" font-size="14.00">identifierAmount: uint256</text>
<text text-anchor="start" x="452.39" y="-1094.9" font-family="Times,serif" font-size="14.00">amount: uint256</text>
<text text-anchor="start" x="452.39" y="-1078.1" font-family="Times,serif" font-size="14.00">start: uint256</text>
<text text-anchor="start" x="452.39" y="-1061.3" font-family="Times,serif" font-size="14.00">nonce: uint256</text>
<text text-anchor="start" x="452.39" y="-1044.5" font-family="Times,serif" font-size="14.00">details: bytes</text>
</g>
<!-- 2&#45;&gt;0 -->
<g id="edge4" class="edge">
<title>2&#45;&gt;0</title>
<path fill="none" stroke="black" d="M532.15,-1036.01C532.56,-1006.21 532.78,-973.4 532.82,-940.31"/>
<polygon fill="black" stroke="black" points="532.82,-940.11 528.83,-934.11 532.83,-928.11 536.83,-934.11 532.82,-940.11"/>
</g>
<!-- 3 -->
<g id="node3" class="node">
<title>3</title>
<polygon fill="#f2f2f2" stroke="black" points="458.79,-242.3 458.79,-359.1 593.36,-359.1 593.36,-242.3 458.79,-242.3"/>
<text text-anchor="middle" x="526.08" y="-342.5" font-family="Times,serif" font-size="14.00">&lt;&lt;Struct&gt;&gt;</text>
<text text-anchor="middle" x="526.08" y="-325.7" font-family="Times,serif" font-size="14.00">BorrowerDetails</text>
<text text-anchor="middle" x="526.08" y="-308.9" font-family="Times,serif" font-size="14.00">src/LoanManager.sol</text>
<polyline fill="none" stroke="black" points="458.79,-300.7 593.36,-300.7 "/>
<text text-anchor="start" x="466.79" y="-284.1" font-family="Times,serif" font-size="14.00">who: address</text>
<text text-anchor="start" x="466.79" y="-267.3" font-family="Times,serif" font-size="14.00">what: address</text>
<text text-anchor="start" x="466.79" y="-250.5" font-family="Times,serif" font-size="14.00">howMuch: uint256</text>
</g>
<!-- 3&#45;&gt;0 -->
<g id="edge5" class="edge">
<title>3&#45;&gt;0</title>
<path fill="none" stroke="black" d="M526.08,-359.14C526.08,-385.76 526.08,-419.38 526.08,-455.03"/>
<polygon fill="black" stroke="black" points="526.08,-455.19 530.08,-461.19 526.08,-467.19 522.08,-461.19 526.08,-455.19"/>
</g>
<!-- 4 -->
<g id="node4" class="node">
<title>4</title>
<polygon fill="#f2f2f2" stroke="black" points="517.25,-0.5 517.25,-134.1 724.91,-134.1 724.91,-0.5 517.25,-0.5"/>
<text text-anchor="middle" x="621.08" y="-117.5" font-family="Times,serif" font-size="14.00">&lt;&lt;Struct&gt;&gt;</text>
<text text-anchor="middle" x="621.08" y="-100.7" font-family="Times,serif" font-size="14.00">NewLoanRequest</text>
<text text-anchor="middle" x="621.08" y="-83.9" font-family="Times,serif" font-size="14.00">src/LoanManager.sol</text>
<polyline fill="none" stroke="black" points="517.25,-75.7 724.91,-75.7 "/>
<text text-anchor="start" x="525.25" y="-59.1" font-family="Times,serif" font-size="14.00">lender: address</text>
<text text-anchor="start" x="525.25" y="-42.3" font-family="Times,serif" font-size="14.00">borrowerDetails: BorrowerDetails</text>
<text text-anchor="start" x="525.25" y="-25.5" font-family="Times,serif" font-size="14.00">signature: Validator.Signature</text>
<text text-anchor="start" x="525.25" y="-8.7" font-family="Times,serif" font-size="14.00">details: bytes</text>
</g>
<!-- 4&#45;&gt;3 -->
<g id="edge1" class="edge">
<title>4&#45;&gt;3</title>
<path fill="none" stroke="black" stroke-dasharray="5,2" d="M593.98,-134.3C581.31,-165.17 566.24,-201.87 553.52,-232.85"/>
<polygon fill="black" stroke="black" points="550.22,-231.68 549.66,-242.26 556.69,-234.34 550.22,-231.68"/>
</g>
<!-- 4&#45;&gt;0 -->
<g id="edge6" class="edge">
<title>4&#45;&gt;0</title>
<path fill="none" stroke="black" d="M622.07,-134.27C622.14,-207.29 619.2,-328.24 602.08,-430.8 600.74,-438.83 599.24,-446.97 597.61,-455.16"/>
<polygon fill="black" stroke="black" points="597.56,-455.44 600.27,-462.12 595.14,-467.2 592.43,-460.51 597.56,-455.44"/>
</g>
<!-- 5 -->
<g id="node5" class="node">
<title>5</title>
<polygon fill="#f2f2f2" stroke="black" points="648.99,-217.1 648.99,-384.3 841.17,-384.3 841.17,-217.1 648.99,-217.1"/>
<text text-anchor="middle" x="745.08" y="-367.7" font-family="Times,serif" font-size="14.00">&lt;&lt;Enum&gt;&gt;</text>
<text text-anchor="middle" x="745.08" y="-350.9" font-family="Times,serif" font-size="14.00">ContextErrors</text>
<text text-anchor="middle" x="745.08" y="-334.1" font-family="Times,serif" font-size="14.00">src/LoanManager.sol</text>
<polyline fill="none" stroke="black" points="648.99,-325.9 841.17,-325.9 "/>
<text text-anchor="start" x="656.99" y="-309.3" font-family="Times,serif" font-size="14.00">LENGTH_MISMATCH: 0</text>
<text text-anchor="start" x="656.99" y="-292.5" font-family="Times,serif" font-size="14.00">BORROWER_MISMATCH: 1</text>
<text text-anchor="start" x="656.99" y="-275.7" font-family="Times,serif" font-size="14.00">COLLATERAL: 2</text>
<text text-anchor="start" x="656.99" y="-258.9" font-family="Times,serif" font-size="14.00">INVALID_PAYMENT: 3</text>
<text text-anchor="start" x="656.99" y="-242.1" font-family="Times,serif" font-size="14.00">ZERO_ADDRESS: 4</text>
<text text-anchor="start" x="656.99" y="-225.3" font-family="Times,serif" font-size="14.00">INVALID_LOAN: 5</text>
</g>
<!-- 5&#45;&gt;0 -->
<g id="edge3" class="edge">
<title>5&#45;&gt;0</title>
<path fill="none" stroke="black" d="M699.17,-384.5C687.1,-406.28 673.45,-430.89 659.24,-456.52"/>
<polygon fill="black" stroke="black" points="659.16,-456.67 659.75,-463.85 653.34,-467.16 652.75,-459.98 659.16,-456.67"/>
</g>
<!-- 0&#45;&gt;1 -->
<g id="edge8" class="edge">
<title>0&#45;&gt;1</title>
<path fill="none" stroke="black" stroke-dasharray="5,2" d="M443.72,-466.87C428.21,-427.34 413.02,-389.58 400.69,-360.18"/>
<polygon fill="black" stroke="black" points="403.9,-358.78 396.79,-350.93 397.45,-361.5 403.9,-358.78"/>
</g>
<!-- 0&#45;&gt;2 -->
<g id="edge7" class="edge">
<title>0&#45;&gt;2</title>
<path fill="none" stroke="black" stroke-dasharray="5,2" d="M519.33,-928.11C519.32,-961.52 519.5,-994.98 519.87,-1025.7"/>
<polygon fill="black" stroke="black" points="516.38,-1026.05 520.01,-1036.01 523.38,-1025.96 516.38,-1026.05"/>
</g>
<!-- 6 -->
<g id="node7" class="node">
<title>6</title>
<polygon fill="#f2f2f2" stroke="black" points="743.14,-0.5 743.14,-134.1 1291.02,-134.1 1291.02,-0.5 743.14,-0.5"/>
<text text-anchor="middle" x="1017.08" y="-117.5" font-family="Times,serif" font-size="14.00">&lt;&lt;Interface&gt;&gt;</text>
<text text-anchor="middle" x="1017.08" y="-100.7" font-family="Times,serif" font-size="14.00">TokenReceiverInterface</text>
<text text-anchor="middle" x="1017.08" y="-83.9" font-family="Times,serif" font-size="14.00">src/interfaces/TokenReceiverInterface.sol</text>
<polyline fill="none" stroke="black" points="743.14,-75.7 1291.02,-75.7 "/>
<text text-anchor="start" x="751.14" y="-59.1" font-family="Times,serif" font-size="14.00">External:</text>
<text text-anchor="start" x="751.14" y="-42.3" font-family="Times,serif" font-size="14.00"> &#160;&#160;&#160;&#160;onERC721Received(operator: address, from: address, tokenId: uint256, data: bytes): bytes4</text>
<text text-anchor="start" x="751.14" y="-25.5" font-family="Times,serif" font-size="14.00"> &#160;&#160;&#160;&#160;onERC1155Received(address, address, uint256, uint256, bytes): bytes4</text>
<text text-anchor="start" x="751.14" y="-8.7" font-family="Times,serif" font-size="14.00"> &#160;&#160;&#160;&#160;onERC1155BatchReceived(address, address, uint256[], uint256[], bytes): bytes4</text>
</g>
<!-- 8 -->
<g id="node8" class="node">
<title>8</title>
<polygon fill="#f2f2f2" stroke="black" points="1309.46,-8.9 1309.46,-125.7 1518.69,-125.7 1518.69,-8.9 1309.46,-8.9"/>
<text text-anchor="middle" x="1414.08" y="-109.1" font-family="Times,serif" font-size="14.00">&lt;&lt;Struct&gt;&gt;</text>
<text text-anchor="middle" x="1414.08" y="-92.3" font-family="Times,serif" font-size="14.00">SettlementData</text>
<text text-anchor="middle" x="1414.08" y="-75.5" font-family="Times,serif" font-size="14.00">src/validators/UniqueValidator.sol</text>
<polyline fill="none" stroke="black" points="1309.46,-67.3 1518.69,-67.3 "/>
<text text-anchor="start" x="1317.46" y="-50.7" font-family="Times,serif" font-size="14.00">startingPrice: uint256</text>
<text text-anchor="start" x="1317.46" y="-33.9" font-family="Times,serif" font-size="14.00">endingPrice: uint256</text>
<text text-anchor="start" x="1317.46" y="-17.1" font-family="Times,serif" font-size="14.00">window: uint256</text>
</g>
<!-- 7 -->
<g id="node10" class="node">
<title>7</title>
<polygon fill="#f2f2f2" stroke="black" points="1082.42,-171.1 1082.42,-430.3 1745.74,-430.3 1745.74,-171.1 1082.42,-171.1"/>
<text text-anchor="middle" x="1414.08" y="-413.7" font-family="Times,serif" font-size="14.00">UniqueValidator</text>
<text text-anchor="middle" x="1414.08" y="-396.9" font-family="Times,serif" font-size="14.00">src/validators/UniqueValidator.sol</text>
<polyline fill="none" stroke="black" points="1082.42,-388.7 1745.74,-388.7 "/>
<text text-anchor="start" x="1090.42" y="-372.1" font-family="Times,serif" font-size="14.00">Public:</text>
<text text-anchor="start" x="1090.42" y="-355.3" font-family="Times,serif" font-size="14.00"> &#160;&#160;LM: LoanManager</text>
<text text-anchor="start" x="1090.42" y="-338.5" font-family="Times,serif" font-size="14.00"> &#160;&#160;CI: ConduitControllerInterface</text>
<polyline fill="none" stroke="black" points="1082.42,-330.3 1745.74,-330.3 "/>
<text text-anchor="start" x="1090.42" y="-313.7" font-family="Times,serif" font-size="14.00">Internal:</text>
<text text-anchor="start" x="1090.42" y="-296.9" font-family="Times,serif" font-size="14.00"> &#160;&#160;&#160;_getOwed(loan: LoanManager.Loan, details: Details, timestamp: uint256): uint256</text>
<text text-anchor="start" x="1090.42" y="-280.1" font-family="Times,serif" font-size="14.00">External:</text>
<text text-anchor="start" x="1090.42" y="-263.3" font-family="Times,serif" font-size="14.00"> &#160;&#160;&#160;execute(loan: LoanManager.Loan, signature: Signature, consideration: ReceivedItem): (recipient: address)</text>
<text text-anchor="start" x="1090.42" y="-246.5" font-family="Times,serif" font-size="14.00"> &#160;&#160;&#160;isLoanHealthy(loan: LoanManager.Loan): bool</text>
<text text-anchor="start" x="1090.42" y="-229.7" font-family="Times,serif" font-size="14.00"> &#160;&#160;&#160;getClosedConsideration(loan: LoanManager.Loan, maximumSpent: SpentItem): (consideration: ReceivedItem[])</text>
<text text-anchor="start" x="1090.42" y="-212.9" font-family="Times,serif" font-size="14.00">Public:</text>
<text text-anchor="start" x="1090.42" y="-196.1" font-family="Times,serif" font-size="14.00"> &#160;&#160;&#160;constructor(LM_: LoanManager, CI_: ConduitControllerInterface, strategist_: address, fee_: uint256)</text>
<text text-anchor="start" x="1090.42" y="-179.3" font-family="Times,serif" font-size="14.00"> &#160;&#160;&#160;getOwed(loan: LoanManager.Loan, timestamp: uint256): uint256</text>
</g>
<!-- 8&#45;&gt;7 -->
<g id="edge10" class="edge">
<title>8&#45;&gt;7</title>
<path fill="none" stroke="black" d="M1414.08,-125.8C1414.08,-136.13 1414.08,-147.3 1414.08,-158.82"/>
<polygon fill="black" stroke="black" points="1414.08,-158.93 1418.08,-164.93 1414.08,-170.93 1410.08,-164.93 1414.08,-158.93"/>
</g>
<!-- 9 -->
<g id="node9" class="node">
<title>9</title>
<polygon fill="#f2f2f2" stroke="black" points="1086.46,-580.5 1086.46,-814.9 1295.69,-814.9 1295.69,-580.5 1086.46,-580.5"/>
<text text-anchor="middle" x="1191.08" y="-798.3" font-family="Times,serif" font-size="14.00">&lt;&lt;Struct&gt;&gt;</text>
<text text-anchor="middle" x="1191.08" y="-781.5" font-family="Times,serif" font-size="14.00">Details</text>
<text text-anchor="middle" x="1191.08" y="-764.7" font-family="Times,serif" font-size="14.00">src/validators/UniqueValidator.sol</text>
<polyline fill="none" stroke="black" points="1086.46,-756.5 1295.69,-756.5 "/>
<text text-anchor="start" x="1094.46" y="-739.9" font-family="Times,serif" font-size="14.00">validator: address</text>
<text text-anchor="start" x="1094.46" y="-723.1" font-family="Times,serif" font-size="14.00">deadline: uint256</text>
<text text-anchor="start" x="1094.46" y="-706.3" font-family="Times,serif" font-size="14.00">conduit: address</text>
<text text-anchor="start" x="1094.46" y="-689.5" font-family="Times,serif" font-size="14.00">collateral: address</text>
<text text-anchor="start" x="1094.46" y="-672.7" font-family="Times,serif" font-size="14.00">identifier: uint256</text>
<text text-anchor="start" x="1094.46" y="-655.9" font-family="Times,serif" font-size="14.00">debtToken: address</text>
<text text-anchor="start" x="1094.46" y="-639.1" font-family="Times,serif" font-size="14.00">maxAmount: uint256</text>
<text text-anchor="start" x="1094.46" y="-622.3" font-family="Times,serif" font-size="14.00">rate: uint256</text>
<text text-anchor="start" x="1094.46" y="-605.5" font-family="Times,serif" font-size="14.00">loanDuration: uint256</text>
<text text-anchor="start" x="1094.46" y="-588.7" font-family="Times,serif" font-size="14.00">settlement: SettlementData</text>
</g>
<!-- 9&#45;&gt;8 -->
<g id="edge9" class="edge">
<title>9&#45;&gt;8</title>
<path fill="none" stroke="black" stroke-dasharray="5,2" d="M1126.88,-580.48C1105.28,-535.19 1083.92,-481.94 1073.08,-430.8 1049.1,-317.67 997.98,-258.54 1073.08,-170.6 1106.25,-131.76 1251.96,-151.73 1300.08,-134.6 1304.08,-133.17 1308.1,-131.61 1312.12,-129.93"/>
<polygon fill="black" stroke="black" points="1313.73,-133.04 1321.48,-125.81 1310.91,-126.63 1313.73,-133.04"/>
</g>
<!-- 9&#45;&gt;7 -->
<g id="edge11" class="edge">
<title>9&#45;&gt;7</title>
<path fill="none" stroke="black" d="M1253.88,-580.34C1272.4,-543.53 1293.26,-503.01 1314.08,-466.8 1319,-458.24 1324.19,-449.52 1329.52,-440.79"/>
<polygon fill="black" stroke="black" points="1329.54,-440.75 1329.27,-433.55 1335.82,-430.53 1336.09,-437.74 1329.54,-440.75"/>
</g>
<!-- 7&#45;&gt;9 -->
<g id="edge14" class="edge">
<title>7&#45;&gt;9</title>
<path fill="none" stroke="black" stroke-dasharray="5,2" d="M1317.89,-430.53C1310.3,-442.67 1302.93,-454.89 1296.08,-466.8 1276.96,-500.04 1257.82,-536.91 1241.16,-571.21"/>
<polygon fill="black" stroke="black" points="1237.95,-569.82 1236.76,-580.34 1244.26,-572.86 1237.95,-569.82"/>
</g>
<!-- 11 -->
<g id="node11" class="node">
<title>11</title>
<polygon fill="#f2f2f2" stroke="black" points="1314.07,-639.3 1314.07,-756.1 1482.09,-756.1 1482.09,-639.3 1314.07,-639.3"/>
<text text-anchor="middle" x="1398.08" y="-739.5" font-family="Times,serif" font-size="14.00">&lt;&lt;Struct&gt;&gt;</text>
<text text-anchor="middle" x="1398.08" y="-722.7" font-family="Times,serif" font-size="14.00">Signature</text>
<text text-anchor="middle" x="1398.08" y="-705.9" font-family="Times,serif" font-size="14.00">src/validators/Validator.sol</text>
<polyline fill="none" stroke="black" points="1314.07,-697.7 1482.09,-697.7 "/>
<text text-anchor="start" x="1322.07" y="-681.1" font-family="Times,serif" font-size="14.00">v: uint8</text>
<text text-anchor="start" x="1322.07" y="-664.3" font-family="Times,serif" font-size="14.00">r: bytes32</text>
<text text-anchor="start" x="1322.07" y="-647.5" font-family="Times,serif" font-size="14.00">s: bytes32</text>
</g>
<!-- 7&#45;&gt;11 -->
<g id="edge13" class="edge">
<title>7&#45;&gt;11</title>
<path fill="none" stroke="black" stroke-dasharray="5,2" d="M1408.86,-430.49C1406.18,-496.69 1403.02,-574.66 1400.82,-629.04"/>
<polygon fill="black" stroke="black" points="1397.31,-629.12 1400.41,-639.25 1404.31,-629.4 1397.31,-629.12"/>
</g>
<!-- 10 -->
<g id="node12" class="node">
<title>10</title>
<polygon fill="#f2f2f2" stroke="black" points="1083.11,-965.1 1083.11,-1358.7 1825.05,-1358.7 1825.05,-965.1 1083.11,-965.1"/>
<text text-anchor="middle" x="1454.08" y="-1342.1" font-family="Times,serif" font-size="14.00">&lt;&lt;Abstract&gt;&gt;</text>
<text text-anchor="middle" x="1454.08" y="-1325.3" font-family="Times,serif" font-size="14.00">Validator</text>
<text text-anchor="middle" x="1454.08" y="-1308.5" font-family="Times,serif" font-size="14.00">src/validators/Validator.sol</text>
<polyline fill="none" stroke="black" points="1083.11,-1300.3 1825.05,-1300.3 "/>
<text text-anchor="start" x="1091.11" y="-1283.7" font-family="Times,serif" font-size="14.00">Private:</text>
<text text-anchor="start" x="1091.11" y="-1266.9" font-family="Times,serif" font-size="14.00"> &#160;&#160;_counter: mapping(address=&gt;uint256)</text>
<text text-anchor="start" x="1091.11" y="-1250.1" font-family="Times,serif" font-size="14.00">Public:</text>
<text text-anchor="start" x="1091.11" y="-1233.3" font-family="Times,serif" font-size="14.00"> &#160;&#160;EIP_DOMAIN: bytes32</text>
<text text-anchor="start" x="1091.11" y="-1216.5" font-family="Times,serif" font-size="14.00"> &#160;&#160;VALIDATOR_TYPEHASH: bytes32</text>
<text text-anchor="start" x="1091.11" y="-1199.7" font-family="Times,serif" font-size="14.00"> &#160;&#160;VERSION: bytes32</text>
<text text-anchor="start" x="1091.11" y="-1182.9" font-family="Times,serif" font-size="14.00"> &#160;&#160;strategist: address</text>
<text text-anchor="start" x="1091.11" y="-1166.1" font-family="Times,serif" font-size="14.00"> &#160;&#160;strategistFee: uint256</text>
<polyline fill="none" stroke="black" points="1083.11,-1157.9 1825.05,-1157.9 "/>
<text text-anchor="start" x="1091.11" y="-1141.3" font-family="Times,serif" font-size="14.00">External:</text>
<text text-anchor="start" x="1091.11" y="-1124.5" font-family="Times,serif" font-size="14.00"> &#160;&#160;&#160;&lt;&lt;abstract&gt;&gt; execute(LoanManager.Loan, Signature, ReceivedItem): (lender: address)</text>
<text text-anchor="start" x="1091.11" y="-1107.7" font-family="Times,serif" font-size="14.00"> &#160;&#160;&#160;&lt;&lt;abstract&gt;&gt; getOwed(loan: LoanManager.Loan, timestamp: uint256): uint256</text>
<text text-anchor="start" x="1091.11" y="-1090.9" font-family="Times,serif" font-size="14.00"> &#160;&#160;&#160;&lt;&lt;abstract&gt;&gt; getClosedConsideration(loan: LoanManager.Loan, maximumSpent: SpentItem): (consideration: ReceivedItem[])</text>
<text text-anchor="start" x="1091.11" y="-1074.1" font-family="Times,serif" font-size="14.00"> &#160;&#160;&#160;&lt;&lt;abstract&gt;&gt; isLoanHealthy(loan: LoanManager.Loan): bool</text>
<text text-anchor="start" x="1091.11" y="-1057.3" font-family="Times,serif" font-size="14.00"> &#160;&#160;&#160;incrementCounter()</text>
<text text-anchor="start" x="1091.11" y="-1040.5" font-family="Times,serif" font-size="14.00">Public:</text>
<text text-anchor="start" x="1091.11" y="-1023.7" font-family="Times,serif" font-size="14.00"> &#160;&#160;&#160;constructor(strategist_: address, fee_: uint256)</text>
<text text-anchor="start" x="1091.11" y="-1006.9" font-family="Times,serif" font-size="14.00"> &#160;&#160;&#160;encodeWithAccountCounter(account: address, context: bytes): bytes</text>
<text text-anchor="start" x="1091.11" y="-990.1" font-family="Times,serif" font-size="14.00"> &#160;&#160;&#160;getCounter(account: address): uint256</text>
<text text-anchor="start" x="1091.11" y="-973.3" font-family="Times,serif" font-size="14.00"> &#160;&#160;&#160;domainSeparator(): bytes32</text>
</g>
<!-- 7&#45;&gt;10 -->
<g id="edge12" class="edge">
<title>7&#45;&gt;10</title>
<path fill="none" stroke="black" d="M1480.51,-430.51C1484.76,-442.55 1488.41,-454.76 1491.08,-466.8 1525.18,-620.58 1514.88,-797.98 1496.6,-934.95"/>
<polygon fill="none" stroke="black" points="1486.18,-933.69 1492.4,-964.86 1506.97,-936.61 1486.18,-933.69"/>
</g>
<!-- 11&#45;&gt;10 -->
<g id="edge15" class="edge">
<title>11&#45;&gt;10</title>
<path fill="none" stroke="black" d="M1400.41,-756.3C1404.87,-806.05 1413.27,-881.06 1422.17,-953.04"/>
<polygon fill="black" stroke="black" points="1422.18,-953.12 1426.9,-958.58 1423.67,-965.03 1418.96,-959.57 1422.18,-953.12"/>
</g>
<!-- 10&#45;&gt;11 -->
<g id="edge16" class="edge">
<title>10&#45;&gt;11</title>
<path fill="none" stroke="black" stroke-dasharray="5,2" d="M1437.03,-965.03C1428.73,-894.21 1419.02,-818.88 1411.23,-766.47"/>
<polygon fill="black" stroke="black" points="1414.65,-765.67 1409.7,-756.3 1407.73,-766.71 1414.65,-765.67"/>
</g>
</g>
</svg>
